<?xml version="1.0" encoding="UTF-8"?>
<svg width="20px" height="20px" viewBox="0 0 20 20" version="1.1" xmlns="http://www.w3.org/2000/svg" xmlns:xlink="http://www.w3.org/1999/xlink">
    <g id="Website" stroke="none" stroke-width="1" fill="none" fill-rule="evenodd">
        <path d="M4.00000191,12 C4.0041523,17 9.50000191,17 9.50000191,17 C9.50000191,17 15.0495035,17 15.0000019,12 C15.0000019,7.5 9.50000191,1 9.50000191,1 C9.50000191,1 3.99625461,7.4855992 4.00000191,12 Z" id="Path-9" stroke="#CCCCCC" fill="#CCCCCC"></path>
        <polygon id="Path" fill="#FFFFFF" points="13 14 10 14 10 13.6000004 10.7731252 13.3000002 10.7731252 7.69999981 10 7.4000001 10 7 13 7 13 7.4000001 12.2955791 7.69999981 12.2955791 13.3000002 13 13.6000004"></polygon>
        <polygon id="Path" fill="#FFFFFF" points="9 14 6 14 6 13.6000004 6.77312525 13.3000002 6.77312525 7.69999981 6 7.4000001 6 7 9 7 9 7.4000001 8.29557905 7.69999981 8.29557905 13.3000002 9 13.6000004"></polygon>
    </g>
</svg>
