<?xml version="1.0" encoding="UTF-8"?>
<svg viewBox="0 0 16 16" version="1.1" xmlns="http://www.w3.org/2000/svg">
    <g stroke="none" stroke-width="1" fill="none" fill-rule="evenodd" transform="translate(1.000000, 1.000000)">
        <path d="M10.6166763,2.03318696 C10.6095133,2.03801539 10.5565067,2.04622371 10.4987248,2.05250066 C10.4407041,2.05877762 10.370745,2.06698594 10.3435254,2.07084868 L10.293384,2.07760848 L10.2952942,2.17828116 C10.2969656,2.27243547 10.2945779,2.28209232 10.2585239,2.33761922 C10.2370347,2.36900399 10.1964441,2.43660195 10.1677919,2.482472 C10.1200382,2.56214103 10.1090549,2.57179788 10.0085334,2.62973899 C9.88532899,2.69975117 9.63987515,2.78424862 9.34236983,2.85667501 C9.23969945,2.88081714 9.06969641,2.92668719 8.96392204,2.96048617 C8.85838645,2.99187094 8.67190839,3.04256941 8.54989778,3.07395418 C8.20726524,3.15603742 7.9114313,3.2622628 7.6370865,3.39987294 C7.50170486,3.4674709 7.43484973,3.48678461 7.4931092,3.44091456 C7.5353712,3.40711558 7.90426825,3.20432168 7.99500021,3.16569428 C8.03630713,3.14638057 8.06782455,3.12948108 8.06472056,3.12706687 C8.05182707,3.11258159 7.88946461,3.17776534 7.81759535,3.2260496 C7.77461705,3.25502016 7.66478362,3.31537548 7.57643935,3.35883132 C7.2994681,3.50126988 7.19202235,3.58093891 6.93415257,3.84408813 C6.80999305,3.97204142 6.67150742,4.12172262 6.62852912,4.17966374 C6.57600009,4.24967591 6.54018485,4.28830332 6.5186957,4.29313175 C6.50198191,4.29796017 6.46855435,4.31968809 6.4470652,4.34383022 C6.40169922,4.39211448 6.38498544,4.38970027 6.40886227,4.34141601 C6.418413,4.31727388 6.418413,4.30520281 6.40886227,4.29554596 C6.38737312,4.27381804 6.3897608,4.24967591 6.418413,4.19656323 C6.4327391,4.17000688 6.43751447,4.15310739 6.43035142,4.15793582 C6.42318837,4.16276424 6.37065934,4.24484749 6.31335494,4.34383022 C6.20829688,4.52006777 6.05070979,4.76631749 6.03160833,4.77838856 C6.02683296,4.78080277 6.02444528,4.75424643 6.02683296,4.72044745 C6.03160833,4.66733476 6.02683296,4.64802106 6.00534381,4.60939365 C5.99101771,4.58525152 5.97430393,4.5635236 5.96952856,4.5635236 C5.95997783,4.5635236 5.936101,4.60456522 5.84059367,4.77838856 C5.80477842,4.84357231 5.66151743,4.99566773 5.64719133,4.98359666 C5.64241597,4.97876824 5.92655027,4.38245763 5.97430393,4.29796017 C5.99579308,4.25933276 6.01728223,4.20863429 6.02205759,4.18207795 C6.03638369,4.09275207 6.10562651,3.97928406 6.2202353,3.85374498 C6.27992738,3.78614702 6.34678251,3.71854905 6.37065934,3.70164956 C6.59748924,3.52782623 6.67628279,3.4674709 6.67628279,3.46264248 C6.67628279,3.45057141 6.59987692,3.49885567 6.55212326,3.53989729 C6.52347106,3.56403942 6.4040869,3.64612266 6.28947811,3.71854905 C6.11756492,3.82718864 6.06026053,3.87305868 5.95759015,3.97445563 C5.88834734,4.04205359 5.81671684,4.10723735 5.79522769,4.11930841 C5.77135086,4.13379369 5.74747403,4.16759267 5.7235972,4.21829114 C5.70449573,4.25933276 5.65435438,4.34383022 5.61376377,4.40659976 C5.57317316,4.4693693 5.52541949,4.54662411 5.50870571,4.57800888 C5.49199193,4.60939365 5.42991217,4.70596217 5.37022009,4.78804541 L5.26277434,4.94014083 L5.212633,5.14534893 C5.16726701,5.33365755 5.1266764,5.6402626 5.1266764,5.7899438 C5.1266764,5.81650015 5.10996262,5.85754177 5.07414737,5.91065445 C5.04549517,5.9565245 5.00251688,6.02653668 4.97864004,6.06516409 C4.93804943,6.13759048 4.93566175,6.13759048 4.89029577,6.13517626 C4.86403125,6.13276205 4.81866527,6.11827677 4.78523771,6.09654885 C4.75419782,6.07723515 4.72077026,6.06033566 4.70883184,6.06033566 C4.69928111,6.06033566 4.6873427,6.04585038 4.68017965,6.02653668 C4.67540428,6.00722297 4.66107818,5.97825242 4.64913976,5.95893871 C4.63720135,5.9372108 4.63481366,5.91065445 4.63958903,5.87926969 C4.64675208,5.83098543 4.69450574,5.28537329 4.69211806,5.26364537 C4.68973038,5.2129469 4.54885707,5.72234584 4.48916499,5.99756612 C4.44141133,6.21484529 4.42947291,6.34279858 4.45334974,6.39832548 C4.47006353,6.44419553 4.57989695,6.55283511 4.60854915,6.55283511 C4.64197671,6.55283511 4.63958903,6.58180567 4.6013861,6.66871733 C4.57034622,6.73872951 4.57034622,6.77252849 4.59899842,6.77252849 C4.60616147,6.77252849 4.63481366,6.77735692 4.6586905,6.78459956 C4.71121953,6.79908484 4.71838258,6.82805539 4.67779196,6.86426859 C4.63481366,6.902896 4.54646939,7.02602086 4.55363244,7.03809192 C4.55602012,7.04292035 4.58467232,7.05499141 4.61332452,7.06223405 C4.64197671,7.06947669 4.66824123,7.08154776 4.66824123,7.0887904 C4.66824123,7.10327567 4.59661073,7.10327567 4.55602012,7.0887904 C4.53453097,7.07913354 4.51781719,7.08154776 4.50349109,7.09120461 C4.48438962,7.10568989 4.48677731,7.1081041 4.5297556,7.12258938 C4.62287525,7.15397415 4.61809988,7.15880257 4.43663596,7.28917008 C4.37216851,7.33504012 4.27904887,7.41229494 4.22651984,7.46299341 L4.1334002,7.55231929 L4.15250166,7.58370406 C4.16444008,7.60543198 4.17160313,7.64405939 4.17160313,7.69958628 C4.17160313,7.7768411 4.16921544,7.78408374 4.13578788,7.81788272 C4.11429873,7.83719643 4.08564653,7.87582383 4.07370812,7.90238018 C4.04505592,7.96032129 3.94477322,8.09068879 3.93044713,8.09068879 C3.92328408,8.09068879 3.91134566,8.0737893 3.89940724,8.05206138 C3.88030578,8.01343397 3.88030578,8.01343397 3.86836736,8.03999032 C3.863592,8.05688981 3.81345065,8.12448777 3.75853394,8.19208574 C3.70361722,8.2596837 3.65108819,8.32728166 3.64153746,8.34176694 C3.6081099,8.39487963 3.60094685,8.38039435 3.51737794,8.10034564 C3.48633805,7.99653448 3.45052281,7.89755175 3.43858439,7.87582383 L3.41709524,7.83719643 L3.41709524,7.88306647 C3.41709524,7.91203703 3.40754451,7.93617916 3.39083073,7.95066444 C3.36217853,7.97722078 3.31681255,8.17518624 3.2666712,8.48661972 C3.24756974,8.61457301 3.22846827,8.69424204 3.21652985,8.70872732 C3.19981607,8.72804102 3.14251168,8.76425422 3.12818558,8.76425422 C3.12579789,8.76425422 3.10192106,8.73045523 3.07326886,8.68941361 C3.04461666,8.64837199 3.01596447,8.61698722 3.0111891,8.61698722 C2.996863,8.61698722 2.90135567,8.39487963 2.89419262,8.34418115 C2.88464189,8.27175476 2.86792811,8.3152106 2.84882664,8.4648918 C2.83927591,8.53490398 2.82972518,8.59525931 2.8273375,8.59767352 C2.81778676,8.60733037 2.79629761,8.56628875 2.7700331,8.48661972 C2.71034102,8.30313953 2.56946771,7.93376495 2.55036625,7.91203703 C2.5288771,7.8878949 2.44530819,7.52576295 2.44530819,7.45092235 C2.4429205,7.424366 2.44053282,7.39298123 2.43575745,7.38091017 C2.42620672,7.35676804 2.40949294,8.0182624 2.40949294,8.43109282 C2.40949294,8.6314725 2.41188062,8.66527148 2.43336977,8.71114153 C2.44530819,8.74011209 2.46202197,8.80529584 2.46918502,8.85116588 C2.47396038,8.89945014 2.48828648,8.96221968 2.49783722,8.99119024 C2.52171405,9.0587882 2.51932636,9.06844505 2.49306185,9.04430292 C2.4715727,9.02498922 2.46918502,9.02498922 2.46440965,9.06120241 C2.45963428,9.08534454 2.46918502,9.12155774 2.4858988,9.16018515 C2.52410173,9.2446826 2.52171405,9.28331001 2.47634807,9.31952321 L2.43814514,9.34849376 L2.46202197,9.43299122 C2.47396038,9.47886126 2.48828648,9.53197395 2.49306185,9.54887344 C2.50500027,9.60440034 2.63393516,9.81443687 2.6984026,9.88203483 C2.73183017,9.91824803 2.77719615,9.9689465 2.7986853,9.99550284 L2.83688823,10.0462013 C2.78197151,10.065515 2.78197151,10.065515 2.81778676,10.0751719 C2.83688823,10.0800003 2.90374336,10.099314 2.96343544,10.1186277 C3.14967472,10.1813972 3.88030578,10.360049 3.96865006,10.3672916 C4.01401604,10.3697059 4.06654507,10.3745343 4.08564653,10.3793627 C4.104748,10.3841911 4.1190741,10.3793627 4.1190741,10.3721201 C4.1190741,10.3552206 3.99013921,10.2755516 3.85642895,10.2079536 C3.76808467,10.1644978 3.73226942,10.1379414 3.68451576,10.0800003 C3.65108819,10.0413729 3.62721136,10.0051597 3.63198673,10.0003313 C3.63676209,9.99550284 3.69884186,10.0075739 3.76808467,10.0268876 C3.83971516,10.0462013 3.93761018,10.0679292 3.98536384,10.0727577 C4.09280958,10.0872429 4.29337497,10.0824145 4.29337497,10.065515 C4.29337497,10.0606866 4.26949814,10.0462013 4.23845826,10.0365445 C4.20741838,10.0268876 4.18115386,10.0148165 4.17876618,10.0099881 C4.17399081,10.0051597 4.1190741,9.97377493 4.05221897,9.93756173 C3.96148701,9.88927747 3.92567176,9.86513534 3.90657029,9.83133636 C3.89224419,9.80719423 3.88030578,9.7830521 3.88030578,9.78063789 C3.88030578,9.77822367 3.99491457,9.77339525 4.13578788,9.77339525 C4.27666119,9.77339525 4.41514681,9.76856682 4.44379901,9.7637384 L4.49871572,9.75649576 L4.43902364,9.73959627 C4.40559608,9.72993941 4.36978083,9.72269678 4.35784242,9.72269678 C4.33396558,9.72269678 4.21696911,9.64061353 4.21696911,9.62371404 C4.21696911,9.6164714 4.23607057,9.59957191 4.26233509,9.58508663 C4.3029257,9.55853029 4.31963948,9.55611608 4.48677731,9.55611608 L4.66585355,9.55611608 L4.66585355,9.51531588 C4.66585355,9.48875954 4.66346586,9.45254634 4.66107818,9.43564685 C4.65630281,9.40909051 4.66346586,9.4011236 4.71838258,9.3704631 C4.77329929,9.34149254 4.78046234,9.33183569 4.78046234,9.30286514 C4.78046234,9.28355143 4.79001307,9.25216666 4.7995638,9.23043875 L4.82105295,9.19181134 L4.96670163,9.19663976 C5.04788286,9.20146819 5.15294092,9.20871083 5.20069458,9.21595347 C5.25083593,9.22319611 5.30575264,9.22681743 5.3248541,9.22319611 C5.35589399,9.21595347 5.35828167,9.21450494 5.34156789,9.18336159 C5.33201715,9.1664621 5.32007874,9.12542048 5.31530337,9.0916215 C5.30814032,9.04816566 5.29858959,9.03126617 5.28187581,9.02402353 C5.26038666,9.0167809 5.26754971,9.00833115 5.34634325,8.96608242 C5.39409692,8.93711187 5.44185058,8.91538395 5.44901363,8.91538395 C5.45617668,8.91538395 5.48005351,8.9057271 5.50393034,8.8943803 C5.54213327,8.87748081 5.54690864,8.87748081 5.61376377,8.90645136 C5.65435438,8.92335085 5.71404646,8.94266456 5.74986171,8.9499072 C5.78567696,8.95714983 5.83343062,8.97404933 5.85969514,8.9885346 L5.9074488,9.01267673 L5.91461185,8.97887775 C5.91938722,8.95714983 5.91461185,8.9330077 5.89789807,8.90403715 L5.80716611,8.74228488 C5.76896318,8.67710113 5.74031098,8.62157423 5.74031098,8.61916001 C5.74031098,8.60950316 5.89073502,8.56363312 5.95520247,8.55639048 C6.02205759,8.54673362 6.01966991,8.55156205 6.01489455,8.43326561 C6.01250686,8.36566765 6.01489455,8.3560108 6.04115906,8.33959415 C6.07219894,8.32028045 6.35394556,8.22854035 6.45900362,8.20439822 L6.57361241,8.17687619 C6.66911974,8.15394117 6.75030097,8.14790564 6.7455256,8.16480513 C6.74313792,8.17446198 6.72403645,8.18894726 6.70493499,8.19860411 C6.65001827,8.22757467 6.47094203,8.344664 6.47094203,8.35311374 C6.47094203,8.35794217 6.48049277,8.37725587 6.49243118,8.39898379 C6.56167399,8.5124518 6.58316314,8.68627514 6.54973558,8.87941218 C6.54018485,8.93735329 6.52585875,9.03512891 6.5186957,9.09910556 C6.5043696,9.23430149 6.4613913,9.42019589 6.40647459,9.61091871 C6.38259776,9.68575932 6.35872092,9.77605088 6.35155787,9.81129839 C6.33245641,9.90303849 6.24411213,10.1203177 6.18203237,10.2313715 C6.1486048,10.2905197 6.07936199,10.3786384 6.00295613,10.4619288 C5.85253209,10.6260953 5.71882183,10.7202496 5.44901363,10.8530313 C5.34634325,10.9037298 5.23889751,10.9592567 5.20785763,10.973742 C5.17681775,10.9906414 5.07414737,11.0220262 4.97864004,11.0461683 C4.88313272,11.0703105 4.72315794,11.1113521 4.62526293,11.1379084 C4.52498024,11.1644648 4.42469754,11.1861927 4.4032084,11.1861927 C4.37933156,11.1861927 4.28382424,11.200678 4.19070459,11.2151633 C3.80867528,11.280347 3.50543952,11.2658617 3.20459144,11.166879 C2.92762019,11.0727247 2.40710525,10.939943 2.39039147,10.9568425 C2.38800379,10.9592567 2.44769587,10.9761562 2.52410173,10.9954699 C2.60050759,11.0147836 2.74854395,11.0582394 2.85121433,11.0944526 C3.10669643,11.1813643 3.34785243,11.2489622 3.50543952,11.2755186 C3.69406649,11.3093176 4.104748,11.3044891 4.3172518,11.2706901 C4.47245121,11.2441338 4.69928111,11.2368912 4.69928111,11.2562049 C4.69928111,11.2779328 4.41992218,11.3696729 4.29815034,11.3865724 C4.23368289,11.3962292 4.12146178,11.4155429 4.05221897,11.427614 C3.88746883,11.4589988 3.80389992,11.4565845 3.60333453,11.4203714 C3.10430874,11.3310455 2.7413809,11.2682759 2.71511639,11.2682759 C2.69362724,11.2900039 2.71750407,11.2948323 2.7413809,11.2948323 C2.79152225,11.2948323 3.30009877,11.3793297 3.47678732,11.4179571 C3.70600491,11.4662414 3.85881663,11.4783125 4.08803422,11.4638272 C4.3315779,11.4493419 4.59899842,11.4131287 4.71838258,11.3793297 C4.82105295,11.3503592 4.99535383,11.2851754 5.34873094,11.1403226 C5.65674207,11.0123694 5.82865526,10.9327003 5.92416258,10.8699308 C5.95997783,10.8457887 6.0077315,10.8168181 6.02922064,10.804747 C6.1342787,10.7395633 6.26560128,10.6357521 6.38021007,10.531941 C6.54973558,10.3750171 6.88878659,10.0056425 6.96041709,9.89700295 C6.99145697,9.84871869 7.04637368,9.78353494 7.07980124,9.74973596 C7.11322881,9.71593698 7.16337016,9.66041008 7.19202235,9.62178267 C7.25410212,9.53728522 7.37587396,9.31517762 7.43556604,9.17273906 C7.46183055,9.11238373 7.48809507,9.05685683 7.49287044,9.04961419 C7.4976458,9.04237155 7.50958422,9.00615836 7.51674727,8.96753095 C7.53346105,8.88061928 7.55256252,8.866134 7.55256252,8.94338882 C7.55256252,9.00132993 7.60986691,9.24033702 7.63613143,9.30069234 C7.64806984,9.32724869 7.64329448,9.34414818 7.60509155,9.42864563 L7.5549502,9.53728522 C7.55017483,9.54935628 7.64568216,9.53969943 7.69104814,9.52521415 C7.71253729,9.51797151 7.71970034,9.52521415 7.73402644,9.5710842 C7.74357717,9.60005476 7.75551559,9.66282429 7.76029095,9.71110855 L7.76506632,9.79802022 L7.71492497,9.84630448 C7.66478362,9.89217453 7.61464228,9.93563036 7.53823642,9.99115726 L7.50242117,10.0177136 C7.57882703,10.0684121 7.62514808,10.0708263 7.70059887,10.0442699 C7.8247584,9.9983999 7.81998303,9.9983999 7.82953376,10.0635837 C7.83430913,10.1094537 7.83192145,10.1287674 7.81281998,10.1625664 C7.80088157,10.1842943 7.78894315,10.2132649 7.78894315,10.2277501 C7.78894315,10.2422354 7.74357717,10.2929339 7.67194667,10.3557034 C7.60747923,10.4131617 7.54778715,10.4715856 7.53680381,10.4860709 C7.52725307,10.5005562 7.49621319,10.5343552 7.46994868,10.5584973 L7.42219501,10.6043674 L7.50815161,10.5995389 C7.58216979,10.5947105 7.68961553,10.5681542 7.89495628,10.5029704 C7.92360848,10.4933136 7.94867916,10.4884851 7.95082807,10.4933136 C7.96563171,10.5174557 7.96992954,10.6502374 7.95560344,10.6767938 C7.93697951,10.7130069 7.71516374,10.8530313 7.60747923,10.8989013 C7.56450093,10.9158008 7.45944287,10.9568425 7.37109859,10.9906414 C7.27320358,11.0268546 7.21589919,11.0558252 7.22067455,11.065482 C7.22903144,11.0775531 7.67910972,11.0703105 7.99905927,11.0509968 C8.15067715,11.0413399 8.18529856,11.0340973 8.34766102,10.9833988 C8.56016482,10.9158008 8.67477361,10.8699308 8.70342581,10.8409602 C8.71942329,10.826475 8.72252728,10.8095755 8.71679684,10.7733623 C8.70008305,10.6743795 8.70247074,10.6719653 8.78126428,10.6429948 C8.90064844,10.5995389 8.93168832,10.5898821 9.0630109,10.56574 C9.25163787,10.5295268 9.48563082,10.5150415 9.54771058,10.5367694 C9.6169534,10.5609115 9.70290999,10.6188526 9.75305134,10.6767938 C9.800805,10.7299064 9.85572171,10.8361318 9.85572171,10.8771734 C9.85572171,10.8892445 9.8581094,10.9037298 9.86288476,10.9085582 C9.86766013,10.9133866 10.0324103,10.8506171 10.0467364,10.8361318 C10.0562871,10.826475 9.95839209,10.7323207 9.8867616,10.6840364 C9.78886658,10.6164384 9.49518155,10.4715856 9.37579739,10.4353725 C9.2755147,10.4039877 9.24208714,10.3822598 9.24208714,10.3532892 C9.24208714,10.3315613 9.30177922,10.3291471 9.34475751,10.3484608 C9.36147129,10.3557034 9.38057276,10.3581176 9.38296044,10.3557034 C9.39489886,10.3436324 9.24925019,10.2132649 9.18239506,10.1746374 C9.14896749,10.1553237 9.10360151,10.1263532 9.07972468,10.1070395 C9.02719565,10.0635837 8.98421735,10.0418557 8.89826076,10.0056425 C8.85050709,9.98632883 8.82901795,9.96942934 8.81707953,9.94045879 C8.8075288,9.92114508 8.78842733,9.88976031 8.77410123,9.87286082 C8.7502244,9.84389027 8.74783672,9.82699078 8.7502244,9.6459248 C8.7502244,9.51797151 8.75738745,9.43347406 8.76932587,9.39967508 C8.8218549,9.23550859 9.0200326,8.79370761 9.16568127,8.51607312 C9.22776104,8.39777668 9.22776104,8.37846298 9.17761969,8.27465182 C9.15374286,8.22395335 9.13464139,8.17566909 9.13464139,8.16359802 C9.13464139,8.15152696 9.15374286,8.12014219 9.18000737,8.09117163 C9.20627189,8.06220108 9.24208714,8.01391682 9.26357628,7.98494626 L9.3041669,7.93183357 L9.25880092,7.88354931 C9.23301394,7.85699297 9.2182103,7.83526505 9.22537335,7.83526505 C9.23014872,7.83526505 9.2898408,7.88837774 9.35669593,7.9559757 C9.42116337,8.02115946 9.48324314,8.07668635 9.49040619,8.07668635 C9.50711997,8.09696574 9.559649,8.16214949 9.62650413,8.23650725 C9.72917451,8.34756105 9.76737744,8.37894582 9.87004781,8.43930115 C9.93690294,8.47792855 10.0013704,8.51414175 10.0109211,8.51655596 C10.0228595,8.52138439 10.0682255,8.50689911 10.1135915,8.48275698 C10.1589575,8.46102906 10.3022185,8.40550216 10.433541,8.36204633 C10.6651463,8.2823773 10.674697,8.27754888 10.7487152,8.20995091 C10.7893058,8.1713235 10.8752624,8.0964829 10.9373422,8.04578443 C10.9970343,7.99508596 11.0543387,7.9468017 11.0615017,7.93955906 C11.0925416,7.90817429 10.5529252,7.97335804 10.3237076,8.02888494 C10.1016531,8.08199762 10.0610625,8.07475498 10.1685082,7.99991438 C10.2329757,7.95645855 10.2950554,7.93955906 10.5147223,7.90093165 C10.6460448,7.87920373 10.8776501,7.79180922 10.9588313,7.73435095 C11.0567264,7.66433877 11.2763932,7.49051544 11.3336976,7.43740275 L11.391002,7.38429007 L11.4769586,7.39298123 C11.5247123,7.39539545 11.5939551,7.4050523 11.6297703,7.40988072 C11.6655856,7.41470915 11.6966254,7.41712336 11.6990131,7.41712336 C11.7014008,7.41470915 11.6584225,7.37608174 11.6035058,7.33262591 C11.5509768,7.28917008 11.4674079,7.2191579 11.4220419,7.17642633 C11.3766759,7.13538471 11.3060005,7.07985781 11.2668425,7.05088725 C11.195212,7.00260299 10.6770847,6.73945378 10.5529252,6.69116952 C10.4741317,6.65978475 10.4407041,6.66219896 10.2162619,6.72738271 C10.1255299,6.75393905 10.0324103,6.77808118 10.0061458,6.78290961 C9.97988124,6.78773804 9.92496453,6.80222331 9.88198623,6.81670859 C9.79841732,6.84326493 9.77931585,6.84326493 9.45220326,6.78290961 C9.35908361,6.76601012 9.24925019,6.74862779 9.20627189,6.74186799 C9.62936935,6.75345621 9.80367022,6.76552728 9.820384,6.77276992 C9.85619925,6.75828464 9.82515937,6.62791714 9.79650717,6.55790496 C9.77501802,6.50720649 9.77740571,6.50237806 9.85142388,6.47099329 C9.88962682,6.4540938 9.95409426,6.42270903 9.99707256,6.40339533 L10.0734784,6.36476792 L10.1928626,6.3985669 C10.302696,6.42995167 10.3337359,6.43236588 10.5653412,6.4347801 C10.8041095,6.43719431 10.8160479,6.43719431 10.7897834,6.41546639 C10.7635189,6.39615269 10.5247505,6.28992732 10.4196925,6.25371412 C10.3910403,6.24405727 10.3146344,6.20542986 10.2525547,6.16921667 C10.1904749,6.13300347 10.1283951,6.1016187 10.1164567,6.09679028 C10.06154,6.07747657 10.114069,6.06781972 10.3074714,6.06781972 C10.4235128,6.06781972 10.5175875,6.06299129 10.5175875,6.05816287 C10.5175875,6.05333444 10.4865476,6.03643495 10.4483447,6.01953546 C10.4101417,6.00505018 10.3447192,5.9712512 10.3017409,5.94710907 C10.1751937,5.87468268 10.052228,5.81432736 10.0271574,5.81432736 C10.0008929,5.81432736 9.99038705,5.79259944 9.99038705,5.73465833 L9.99038705,5.69120249 L9.8972674,5.70085934 C9.79698471,5.70810198 9.58686859,5.75155782 9.46270906,5.79018523 L9.3863032,5.81432736 L9.42211845,5.77980411 C9.48419821,5.71944878 9.74923104,5.61563763 9.96173485,5.56976758 C10.1121589,5.53838281 10.6398369,5.52389753 10.7783225,5.54803966 C10.9168081,5.57218179 11.1722902,5.64702239 11.2200439,5.67599295 C11.2439207,5.69047823 11.3179389,5.73151985 11.3871817,5.76773304 C11.5304427,5.83774522 11.7119066,5.95845587 11.8002509,6.0381249 L11.859943,6.09123759 L11.5495442,6.09123759 L11.6617653,6.16124976 C11.7214574,6.19987717 11.8074139,6.2602325 11.8527799,6.29403148 L11.9960409,6.40943086 C12.0843852,6.47944304 12.2300339,6.61898455 12.2992767,6.703482 C12.349418,6.7657687 12.3577749,6.78073682 12.3580137,6.83143529 C12.3580137,6.86282006 12.3651767,6.89903325 12.3747275,6.91110432 C12.3962166,6.94007488 12.3986043,6.97870228 12.3795028,6.97870228 C12.3723398,6.97870228 12.3365245,6.95214594 12.303097,6.92027833 C12.2625064,6.88165092 12.2004266,6.84205783 12.1216331,6.80439611 C12.0571656,6.77301134 11.9759844,6.73438393 11.9449445,6.71748444 C11.9019662,6.69575652 11.8876401,6.69334231 11.8876401,6.70541337 C11.8876401,6.71507022 11.9879228,6.87199407 12.107307,7.05547426 C12.4153181,7.52141737 12.4606841,7.61798589 12.5132131,7.90044881 L12.544253,8.07185793 C12.5466407,8.09117163 12.5609668,8.1032427 12.5824559,8.10734686 C12.642148,8.11941792 12.6970647,8.14356005 12.7018401,8.15563112 C12.7066154,8.1701164 12.6015574,8.22081487 12.5705175,8.22081487 C12.544253,8.22081487 12.5370899,8.27151334 12.5251515,8.61916001 C12.5179885,8.79298335 12.5084377,8.95232141 12.50605,8.97646354 L12.498887,9.01750516 L12.5299269,8.98612039 C12.5585791,8.95714983 12.5633544,8.95714983 12.5943943,8.97404933 C12.6349849,8.99577724 12.6397603,9.03923308 12.6206588,9.17201479 C12.6039451,9.27824016 12.5729052,9.39170817 12.5275392,9.49069091 C12.5108254,9.5269041 12.5012747,9.55587466 12.50605,9.55587466 C12.5251515,9.55587466 12.6111081,9.39170817 12.6660248,9.24685539 C12.7424307,9.04478577 12.7615321,8.96439247 12.7710829,8.78815492 C12.7758582,8.68748224 12.7830213,8.66020164 12.7949597,8.66503006 C12.8283873,8.67710113 12.837938,8.75194173 12.830775,8.96439247 C12.8259996,9.07786048 12.8188365,9.1913285 12.8092858,9.21305641 C12.7997351,9.24202697 12.7997351,9.25651225 12.8092858,9.26858331 C12.8331626,9.29755387 12.6827386,9.66934267 12.544253,9.92524925 C12.4368072,10.1208005 12.3842782,10.2004695 12.2744448,10.3332512 C12.2243034,10.3911924 12.1861005,10.4418908 12.1861005,10.4467193 C12.1861005,10.4515477 12.2099773,10.4370624 12.2386295,10.4153345 C12.2839955,10.3839497 12.31026,10.3767071 12.4033797,10.3670502 C12.6612495,10.3404939 12.642148,10.3404939 12.6373726,10.364636 C12.6349849,10.3798456 12.6445357,10.3887781 12.6755756,10.398435 C12.7543691,10.4225771 12.7424307,10.4515477 12.5943943,10.6012289 C12.4893363,10.7074543 12.4582964,10.7340106 12.4344196,10.7291822 C12.4129304,10.726768 12.408155,10.7195253 12.4105427,10.6953832 C12.4153181,10.65917 12.4177058,10.6567558 12.3508506,10.7484959 C12.3221984,10.7871233 12.2314665,10.9005913 12.1502853,10.9971598 C12.0189627,11.1540837 11.9998612,11.1733974 11.9664336,11.1733974 C11.9306184,11.1733974 11.9282307,11.1709832 11.9306184,11.1251131 L11.9353938,11.0744146 L11.9139046,11.1033852 C11.9019662,11.1202847 11.8685386,11.1661547 11.8374988,11.2071963 C11.8064589,11.2475137 11.7610929,11.3085933 11.7348284,11.3448065 C11.6799117,11.4244755 11.5223246,11.5934704 11.4554694,11.6441689 C11.443531,11.6514115 11.4339803,11.6610684 11.4268172,11.6707252 L11.8876401,11.6707252 C11.8828647,11.6610684 13.5042976,10.7009359 13.5711528,10.6767938 C13.5830912,10.6719653 13.6407197,4.41867082 13.6144552,4.40659976 C13.5810276,4.38970027 13.7127851,4.31485966 13.502669,4.27623226 C13.3164297,4.24001906 13.2471869,4.19656323 13.3379189,4.16759267 C13.4095494,4.14345054 13.4143247,4.12896526 13.3474696,4.13137948 C13.2639007,4.13379369 13.1397412,4.09758049 13.1301904,4.06860994 C13.118252,4.03481096 13.1301904,4.0251541 13.2065963,4.00101197 C13.2447992,3.98894091 13.2997159,3.9696272 13.3283681,3.95755614 C13.3928356,3.92858558 13.6268285,3.8754729 13.6865206,3.87305868 C13.6578684,3.84408813 13.2925529,3.85374498 13.0991506,3.87788711 C12.6263893,3.93582822 12.4449254,3.96721299 12.1679541,4.04205359 C11.8742691,4.12172262 11.8265154,4.12896526 11.8265154,4.10240892 C11.8456169,4.09033785 11.8718814,4.07585258 11.8957582,4.05653887 C11.965001,4.00342619 12.0724468,3.95755614 12.2276462,3.91410031 C12.3064397,3.89237239 12.3995594,3.86340183 12.4329869,3.84891655 C12.4664145,3.83443128 12.5475957,3.81270336 12.6120632,3.79821808 C12.6765306,3.7837328 12.7553242,3.76200489 12.7887517,3.74993382 C12.8197916,3.73786276 12.8723206,3.72096327 12.9057482,3.71130641 C12.9367881,3.70406378 12.9654403,3.69199271 12.967828,3.68716428 C12.9821541,3.66543637 12.8985852,3.66060794 12.5237189,3.66543637 C12.2133201,3.66785058 12.1345265,3.66785058 12.1393019,3.65577952 C12.1512403,3.61956632 11.814577,3.6533653 11.6665406,3.69923535 C11.62595,3.71130641 11.5758087,3.72337748 11.5567072,3.72337748 C11.520892,3.72337748 11.4994028,3.70647799 11.5232796,3.69199271 C11.5089536,3.66543637 11.5185043,3.64853688 11.5638703,3.60749526 C11.5972978,3.5785247 11.6402761,3.54713993 11.6593776,3.53989729 C11.6784791,3.53265465 11.7644357,3.49402724 11.8503922,3.45539984 C12.0318562,3.37090238 12.1130374,3.34676025 12.2491353,3.3371034 C12.4138855,3.32503233 12.3470303,3.31054706 12.1321389,3.31054706 C11.8527799,3.31054706 11.723845,3.33468919 11.4540368,3.43367192 C11.2892867,3.49402724 11.0720075,3.5423115 10.9072574,3.55196836 C10.804587,3.559211 10.7807102,3.56162521 10.7854855,3.5785247 C10.797424,3.62439475 10.7902609,3.6340516 10.7305688,3.66543637 C10.6780398,3.69199271 10.6446122,3.69682114 10.5371665,3.70406378 C10.465536,3.7088922 10.3437642,3.71854905 10.2649706,3.72579169 L10.1217096,3.74027697 L10.0118762,3.81511757 C9.95218411,3.85374498 9.80176007,3.96238457 9.67998823,4.05171045 C9.38391552,4.26898962 9.25975599,4.35348707 9.23826684,4.35348707 C9.21200233,4.35348707 9.26453136,4.30037439 9.42211845,4.16759267 C9.59403164,4.02032568 9.78982166,3.87064447 9.91875655,3.78856123 C9.97606095,3.74993382 10.0596299,3.69199271 10.1049958,3.65577952 C10.1503618,3.61956632 10.2028908,3.58818155 10.2196046,3.58335313 C10.2363184,3.5785247 10.2673583,3.56403942 10.2912351,3.54955414 C10.3127243,3.53506887 10.3580903,3.51334095 10.3915178,3.50126988 L10.4535976,3.47954197 L10.4034562,3.48437039 C10.3771917,3.48678461 10.3174996,3.50609831 10.2721337,3.52541201 C10.2267677,3.54472572 10.1121589,3.58818155 10.0142639,3.62439475 C9.73729263,3.72096327 9.66804982,3.75234804 9.52717651,3.83684549 C9.36958942,3.9309998 9.29795892,3.98411248 9.21200233,4.0613673 C9.13798415,4.12896526 9.11410732,4.13379369 9.11410732,4.08309522 C9.11410732,4.01308304 9.22394074,3.90685767 9.37675247,3.82718864 C9.41018003,3.81028915 9.42689381,3.79338966 9.42689381,3.77649016 C9.42689381,3.73062012 9.45077065,3.70647799 9.57015481,3.61232368 C9.6847636,3.5229978 9.71580348,3.49402724 9.66566213,3.52058359 C9.65372372,3.52782623 9.63223457,3.53265465 9.62029615,3.53265465 C9.61074542,3.53265465 9.52478882,3.58335313 9.43166918,3.64612266 C9.33854954,3.7088922 9.21677769,3.7837328 9.16186098,3.81511757 C9.10694427,3.84650234 8.96607096,3.93341401 8.85146217,4.01066883 C8.72969032,4.09275207 8.63895836,4.14586475 8.63179531,4.14103633 C8.62224458,4.13137948 8.58881702,4.14827897 8.43600529,4.24001906 C8.40974078,4.25691855 8.37153785,4.29313175 8.35482406,4.3221023 C8.33811028,4.35107286 8.29751967,4.40418554 8.26647979,4.44039874 C8.23543991,4.47661193 8.19246161,4.53455305 8.17336014,4.56835203 C8.13515721,4.63353578 8.09934196,4.65043527 8.08262818,4.6190505 C8.07546513,4.60697944 8.06352672,4.5997368 8.05397598,4.5997368 C8.03009915,4.5997368 8.0229361,4.58042309 8.0372622,4.5442099 C8.04681293,4.52006777 8.04442525,4.51282513 8.03248684,4.51282513 C8.00144695,4.51282513 8.02771147,4.44522717 8.09217891,4.36555814 C8.12799416,4.3221023 8.15903404,4.26898962 8.16380941,4.2472617 C8.16858478,4.22553378 8.20440002,4.17000688 8.24499064,4.12172262 C8.3213965,4.02756832 8.31900882,4.02756832 8.21633844,4.10482313 C8.10411733,4.18932059 8.07307745,4.20139165 8.07307745,4.15793582 C8.07307745,4.11206577 8.46465749,3.72820591 8.59598007,3.64853688 C8.6198569,3.6340516 8.62940763,3.63163739 8.63657068,3.64612266 C8.67238593,3.62922317 8.76550557,3.56403942 8.87295132,3.49402724 C9.09023049,3.34917446 9.07590439,3.35883132 9.06635365,3.34917446 C9.05680292,3.33951761 8.96845864,3.38780187 8.78699472,3.49885567 C8.70103813,3.55196836 8.62701995,3.59300998 8.6198569,3.58576734 C8.60791848,3.57369627 8.43839298,3.66543637 8.19962466,3.81270336 C7.97995781,3.94789929 7.94175487,3.97445563 7.8247584,4.06860994 C7.54778715,4.29796017 7.41885226,4.43798453 7.34005871,4.59732258 C7.31140651,4.6552637 7.285142,4.70354796 7.28036663,4.70354796 C7.27559127,4.70354796 7.23022529,4.73734694 7.18247162,4.77597435 C6.96519245,4.95221189 6.91505111,4.98359666 6.92698952,4.93048398 C6.9293772,4.91358449 6.96041709,4.8411581 6.99623233,4.76873171 C7.11084113,4.52731041 7.47854434,4.04205359 7.64329448,3.91410031 C7.71492497,3.85857341 7.71970034,3.85133077 7.69821119,3.83201706 C7.69104814,3.82477442 7.68866046,3.80546072 7.69343582,3.78856123 C7.70298656,3.74751961 7.92504109,3.54713993 8.03009915,3.48678461 C8.07546513,3.46022826 8.13515721,3.42401507 8.15903404,3.40952979 C8.18291088,3.3926303 8.23066454,3.37090238 8.26170442,3.35883132 C8.2927443,3.34434604 8.38108858,3.30813284 8.45988212,3.27191965 C8.53628799,3.23812067 8.6055308,3.20915011 8.61030617,3.20915011 C8.62701995,3.20915011 9.02815072,3.01842728 9.12127037,2.96772881 C9.17618708,2.93634404 9.30273429,2.890474 9.48658589,2.83253288 C9.75878178,2.74803543 9.9402457,2.67802325 10.0763436,2.60076844 C10.2912351,2.48005779 10.4822498,2.32313394 10.5013512,2.25070755 C10.5061266,2.23380806 10.5252281,2.18310959 10.5467172,2.13482533 C10.5944709,2.03101417 10.608797,1.98997255 10.5896955,2.00204361 L10.6166763,2.03318696 Z M7.99673128,2.82746304 L7.98168888,2.87091887 C7.93274137,3.00780475 7.74530824,3.12441123 7.35730972,3.26009001 C7.34871406,3.26322848 7.34537131,3.27119538 7.34943037,3.27795518 C7.36017494,3.29557894 7.47191852,3.27964513 7.52516385,3.25260594 C7.58008056,3.22363539 7.82219164,3.13189529 7.84033803,3.13189529 C7.87734712,3.13189529 8.15360206,2.87598872 8.14500641,2.84943237 C8.14023104,2.83736131 8.11396652,2.83253288 8.06860054,2.83011867 L7.99458236,2.82529024 L7.99673128,2.82746304 Z M11.59688,3.65553809 C11.6057144,3.6567452 11.6007003,3.66422926 11.5873293,3.67871454 C11.5753908,3.69223413 11.5352778,3.71203068 11.4985074,3.72265322 C11.4617371,3.73327575 11.3963146,3.76079778 11.3533363,3.78445707 C11.310358,3.80787493 11.257829,3.83756975 11.2363398,3.85084793 C11.1838108,3.88295696 11.1876311,3.86364325 11.2470844,3.79532103 C11.3020011,3.73255149 11.3712439,3.6907856 11.423773,3.69054418 C11.4428744,3.69054418 11.4882404,3.68257728 11.5240556,3.67267901 C11.5670339,3.66060794 11.5909108,3.6533653 11.6004615,3.65577952 L11.59688,3.65553809 Z M9.2325961,4.2291551 C9.24095299,4.22674089 9.24692219,4.22746515 9.25074249,4.23108647 C9.25480155,4.23519063 9.2325961,4.26440261 9.20131745,4.29554596 C9.17027756,4.32693073 9.12968695,4.36797235 9.11130179,4.38970027 C9.07023364,4.43798453 9.01245171,4.45488402 9.01245171,4.42108504 C9.01245171,4.37521499 9.17362032,4.24001906 9.2325961,4.227948 L9.2325961,4.2291551 Z M10.7153474,4.35227996 C10.7311061,4.36797235 10.6360763,4.42084361 10.5303019,4.45536686 C10.4753852,4.47468056 10.4395699,4.49399427 10.2151277,4.6291902 C10.1267834,4.68230288 10.0527653,4.73058714 10.0479899,4.73782978 C10.0432145,4.74507242 10.0145623,4.76197191 9.98352246,4.77404298 C9.95248257,4.78852825 9.90234123,4.82474145 9.87130135,4.853712 C9.84026147,4.88268256 9.80444622,4.91406733 9.79012012,4.92372418 C9.77579402,4.93338103 9.71371426,4.98890793 9.65402218,5.04684904 C9.56090253,5.13617492 9.53941338,5.15307442 9.50598582,5.15307442 C9.48449667,5.15307442 9.46300752,5.1506602 9.45823216,5.14583178 C9.45345679,5.14100335 9.40570313,5.13376071 9.35078641,5.1313465 L9.25050372,5.12410386 L9.41286618,4.98407951 L9.57522863,4.84164094 L9.81399695,4.73541557 C9.94531953,4.67747446 10.1458849,4.58814857 10.2604937,4.53503589 C10.4491207,4.44812422 10.695052,4.3515557 10.7069905,4.36121255 L10.7153474,4.35227996 Z M8.95801253,4.37714636 L8.96207159,4.41142818 C8.96445927,4.42832767 8.96445927,4.4524698 8.95968391,4.46212666 C8.95729622,4.47178351 8.94774549,4.47902615 8.94058244,4.47902615 C8.91670561,4.47902615 8.91431793,4.44281295 8.93819476,4.40901397 L8.95968391,4.37521499 L8.95801253,4.37714636 Z M8.03493421,4.54372706 C8.03923204,4.54783122 8.03111392,4.5702834 8.01726535,4.592977 C8.00293926,4.61711913 7.99147838,4.65333233 7.99147838,4.67747446 C7.99147838,4.70161659 7.98431533,4.73058714 7.97524213,4.74265821 C7.96616893,4.75714348 7.95446929,4.79094247 7.94969392,4.82232724 C7.94014319,4.88268256 7.88761416,4.94303788 7.78971915,5.00822164 C7.72286402,5.05167747 7.70853792,5.05167747 7.69898719,5.01305006 C7.69182414,4.97925108 7.7252517,4.91648154 7.80165756,4.81991302 C7.83030976,4.78611404 7.86134964,4.74507242 7.87090038,4.72575872 C7.93298014,4.62436177 8.02132442,4.53262168 8.0380382,4.55193538 L8.03493421,4.54372706 Z M7.0025,4.55628096 C7.01443842,4.56835203 6.92418399,4.76148907 6.86401438,4.85081495 C6.71693309,5.07050833 6.67777509,5.1767337 6.64052723,5.4543682 C6.62023192,5.6040494 6.62333591,5.65474788 6.65318195,5.65474788 C6.66512037,5.65474788 6.67228342,5.6595763 6.67228342,5.66923315 C6.67228342,5.6957895 6.61975439,5.76338746 6.57916377,5.78511538 C6.54573621,5.80201487 6.54096084,5.80925751 6.54812389,5.84064228 C6.55528694,5.86961283 6.55289926,5.87444126 6.53141011,5.86719862 C6.51469633,5.85995598 6.49320718,5.87685547 6.43829047,5.94686765 C6.40008753,5.99515191 6.3618846,6.04343617 6.35233387,6.05309302 C6.34039546,6.0675783 6.33800777,6.05309302 6.34278314,5.96135293 C6.34994619,5.83822806 6.38337375,5.72234584 6.45261656,5.5847357 C6.52902243,5.43264028 6.59348987,5.28295907 6.62930512,5.18397634 C6.64840659,5.13086366 6.7033233,5.01980986 6.75107696,4.94014083 C6.84180892,4.78804541 7.0017837,4.54179568 7.00894675,4.54903832 L7.0025,4.55628096 Z M10.8208829,5.03912356 C11.0658592,5.04153778 11.4679451,5.08982204 11.7200844,5.15500579 C11.8227548,5.18156213 11.926619,5.20329005 11.9512122,5.20329005 L11.9961006,5.20329005 L11.9419002,5.21536111 C11.913248,5.22018954 11.8368421,5.22260375 11.7747624,5.22018954 C11.6315014,5.2129469 11.2232076,5.22984639 10.9414609,5.25398852 C10.6310621,5.28054486 10.4328844,5.30951542 10.1583009,5.37469917 C10.0245906,5.40366972 9.90998181,5.42781185 9.90281876,5.42781185 C9.89565572,5.42781185 9.92192023,5.39401287 9.96012316,5.35779968 C10.0604059,5.26123116 10.3779677,5.09465046 10.5021272,5.07533676 C10.5474932,5.06809412 10.6119607,5.05360884 10.6453882,5.04395199 C10.6812035,5.03188092 10.7456709,5.02946671 10.8268522,5.02946671 L10.8208829,5.03912356 Z M12.1228866,5.26364537 C12.2040678,5.26364537 12.2518215,5.27571644 12.2518215,5.29985857 C12.2518215,5.31192963 12.2446584,5.31192963 12.1228866,5.29744435 C12.0751329,5.29020171 12.0345423,5.28054486 12.0345423,5.27330222 C12.0345423,5.26605958 12.0727452,5.26123116 12.1181112,5.26123116 L12.1228866,5.26364537 Z M9.26244213,5.63543417 C9.28631897,5.63784839 9.28870665,5.64991945 9.2672175,5.66681894 C9.25527909,5.67647579 9.23617762,5.68854686 9.22662689,5.69096107 C9.20513774,5.69820371 9.14305798,5.68371843 9.11201809,5.66681894 C9.09052895,5.65474788 9.09291663,5.65233366 9.12395651,5.64750524 C9.18842396,5.63301996 9.23378994,5.62819153 9.26005445,5.63301996 L9.26244213,5.63543417 Z M8.74909025,5.87926969 C8.78968086,5.86961283 8.81833306,5.89858339 8.79445623,5.92513973 C8.7705794,5.95169607 8.67507207,5.9372108 8.67507207,5.90582603 C8.67507207,5.89375496 8.68701049,5.88892654 8.74909025,5.87444126 L8.74909025,5.87926969 Z M8.61776768,6.01687983 C8.62254304,6.01687983 8.62493072,6.02170825 8.62493072,6.02895089 C8.62493072,6.03619353 8.59389084,6.07482094 8.55330023,6.11827677 C8.50554657,6.17138946 8.472119,6.21967372 8.45301754,6.26795798 C8.43869144,6.30658539 8.40048851,6.38142599 8.36944862,6.43212446 C8.3025935,6.54559247 8.28349203,6.59387673 8.26677825,6.69527368 C8.2596152,6.73872951 8.25245215,6.78459956 8.24767678,6.80149905 C8.23812605,6.82805539 8.24051373,6.82805539 8.32647033,6.82805539 C8.37422399,6.82805539 8.43630375,6.82322697 8.46256827,6.81598433 C8.48883278,6.80874169 8.57956474,6.79908484 8.66313366,6.79667062 C8.82310843,6.78701377 8.84698526,6.79425641 8.7849055,6.83529803 C8.74670257,6.85944016 8.65597061,7.04533456 8.62493072,7.16604521 C8.59866621,7.26502795 8.57478938,7.51369188 8.57478938,7.71407156 C8.57478938,7.86375277 8.58672779,7.84926749 8.4291407,7.87099541 C8.37183631,7.87823805 8.25006447,7.89755175 8.1593325,7.91203703 C8.06621286,7.92652231 7.94205333,7.94583601 7.88236125,7.95307865 C7.82266918,7.96032129 7.6626944,7.99170606 7.52420878,8.02550504 C7.27827741,8.08344615 7.24007448,8.09068879 7.25201289,8.07861772 C7.26395131,8.06654666 7.78924161,7.92410809 7.99458236,7.88065226 C8.10919116,7.85409592 8.23573837,7.82029693 8.2739413,7.80581166 C8.33602106,7.77925531 8.34318411,7.77201267 8.34795948,7.74062791 C8.34795948,7.7213142 8.35751021,7.65371624 8.36467326,7.5909467 C8.37183631,7.51369188 8.37183631,7.47265026 8.36467326,7.4605792 C8.34795948,7.43885128 8.38138704,7.19018734 8.41242692,7.10086146 C8.44107912,7.01636401 8.48166973,6.94635183 8.52226035,6.90772442 C8.53897413,6.89082493 8.55330023,6.87392544 8.55330023,6.8666828 C8.55330023,6.84978331 8.4148146,6.86426859 8.17127092,6.902896 C8.06382518,6.91979549 7.97309322,6.92945234 7.96831785,6.92462391 C7.95876712,6.91496706 7.98264395,6.84978331 8.07098823,6.63491835 C8.11635421,6.52386456 8.14739409,6.46833766 8.21186153,6.3838402 C8.25722751,6.32589909 8.31453191,6.26312955 8.33840874,6.24864427 C8.35989789,6.23174478 8.42436534,6.17138946 8.47928205,6.11344835 C8.54613718,6.04102196 8.58672779,6.00722297 8.60344158,6.00722297 L8.61776768,6.01687983 Z M7.24962521,6.21484529 C7.25678826,6.2172595 7.22813606,6.25830113 7.18277008,6.30417117 C7.12546569,6.3645265 7.0944258,6.40556812 7.08009971,6.44902395 C7.07054897,6.48040872 7.04667214,6.52627877 7.02757068,6.54800669 C7.00846921,6.5697346 6.99414311,6.59146252 6.99414311,6.59870516 C6.99414311,6.60353358 6.96549091,6.64216099 6.93206335,6.68561683 C6.89863578,6.72907266 6.86520822,6.77494271 6.86043285,6.78942798 C6.84849444,6.81839854 6.65270442,6.93186655 6.51660647,6.98739345 C6.46168976,7.00912137 6.36618243,7.04292035 6.30171499,7.06223405 C6.23724754,7.08154776 6.17755546,7.09844725 6.1727801,7.09844725 C6.15367863,7.09844725 6.1727801,7.04774878 6.21098303,6.99222188 C6.23008449,6.96325132 6.24918596,6.92462391 6.25396132,6.90531021 C6.25634901,6.8859965 6.28022584,6.84978331 6.30410267,6.82564118 C6.36140707,6.76287164 6.55958477,6.62284729 6.60972612,6.60836201 C6.6550921,6.59629095 6.95116481,6.43695289 7.02518299,6.38142599 C7.05383519,6.35969807 7.10158885,6.31865645 7.13024105,6.28727168 C7.18515777,6.22691636 7.22097301,6.20277423 7.24484984,6.21001687 L7.24962521,6.21484529 Z M9.99068551,7.26019952 C9.99784856,7.25537109 10.0288884,7.25537109 10.0838052,7.26261373 C10.153048,7.26985637 10.1817002,7.28434165 10.1697617,7.30365535 C10.1578233,7.32055484 10.1339465,7.31814063 10.0432145,7.28917008 C10.0002362,7.2746848 9.98113477,7.26261373 9.98829782,7.25778531 L9.99068551,7.26019952 Z M9.580004,7.28434165 C9.58239168,7.28192744 9.63730839,7.29882693 9.70177584,7.32055484 C9.76624329,7.34228276 9.85936293,7.37608174 9.90711659,7.39298123 C9.95487026,7.40988072 9.99784856,7.42919443 10.0002362,7.43643707 C10.009787,7.47023605 9.91189196,7.44367971 9.74714182,7.36642489 C9.64924681,7.32296906 9.57284095,7.28434165 9.57522863,7.28192744 L9.580004,7.28434165 Z M7.57673781,8.093103 C7.59583927,8.093103 7.60300232,8.33693852 7.59106391,8.57353139 C7.57673781,8.83668061 7.56002403,8.92117806 7.47167975,9.14328566 C7.41915072,9.27606737 7.31409266,9.49817497 7.31170497,9.48127548 C7.30931729,9.46437598 7.3499079,9.34366534 7.4358645,9.12155774 C7.51465804,8.90669278 7.54569793,8.73769787 7.53375951,8.55904611 C7.50988268,8.21864208 7.50988268,8.2041568 7.53853488,8.14621569 C7.55286098,8.11483092 7.56957476,8.09068879 7.57435012,8.09068879 L7.57673781,8.093103 Z M8.62015536,8.11241671 L8.62015536,8.21864208 C8.62015536,8.34176694 8.60821694,8.36349486 8.53658645,8.36349486 C8.51032193,8.36349486 8.46973132,8.37315171 8.4434668,8.38280856 C8.41720229,8.39487963 8.38138704,8.41419333 8.36228557,8.42867861 L8.32647033,8.45282074 L8.34795948,8.41419333 C8.35989789,8.39246541 8.42675302,8.3152106 8.49360815,8.24519842 L8.61537999,8.11483092 L8.62015536,8.11241671 Z M13.1257135,8.4455781 C13.1639165,8.4455781 13.1830179,8.46247759 13.1758549,8.48420551 C13.1710795,8.49386236 13.1639165,8.50351921 13.1591411,8.50351921 C13.1042244,8.49627657 13.0731845,8.44316389 13.1233258,8.44316389 L13.1257135,8.4455781 Z M8.55330023,8.92359227 L8.56046328,8.99601866 C8.57240169,9.10948667 8.57240169,9.23261154 8.5580756,9.23261154 C8.55091255,9.23261154 8.54136181,9.22295469 8.53419876,9.21329783 C8.52703571,9.19881256 8.51987266,9.19639834 8.5150973,9.20605519 C8.51032193,9.21329783 8.48883278,9.21812626 8.46734363,9.21812626 C8.44585449,9.21812626 8.39571314,9.22778311 8.35751021,9.24226839 C8.2739413,9.27123895 8.27871666,9.26882473 8.27871666,9.24951103 C8.27871666,9.21571205 8.37422399,9.08775876 8.46018059,9.00567552 L8.54852486,8.91876385 L8.55330023,8.92359227 Z M4.13131097,8.93324913 C4.13847402,8.93566334 4.12892329,8.9477344 4.10982183,8.95980547 C3.98327462,9.03706028 3.85195204,9.12880038 3.83046289,9.1505283 C3.81613679,9.16501357 3.78987228,9.20846941 3.7731585,9.24951103 C3.75405703,9.28813844 3.7301802,9.33400848 3.71824178,9.35332219 C3.70391568,9.37022168 3.6872019,9.4112633 3.68003885,9.44506228 C3.67048812,9.47644705 3.6585497,9.51024603 3.65377434,9.51990288 C3.64661129,9.52714552 3.63706055,9.53438816 3.63228519,9.53438816 C3.61557141,9.53438816 3.61079604,9.51507446 3.60363299,9.38229274 L3.59646994,9.26158209 L3.67765117,9.19881256 C3.72301715,9.16259936 3.7731585,9.12880038 3.78987228,9.11914353 C3.80658606,9.10948667 3.85433972,9.07568769 3.89731802,9.04430292 C3.98327462,8.98153339 4.10265878,8.92117806 4.12653561,8.9284207 L4.13131097,8.93324913 Z M8.57478938,9.60440034 C8.58672779,9.61164298 8.58672779,9.7082115 8.57478938,9.73959627 C8.57240169,9.74925312 8.55330023,9.7637384 8.53181108,9.77580946 C8.51032193,9.78546631 8.4864451,9.8023658 8.47928205,9.81202266 C8.46973132,9.8192653 8.42675302,9.838579 8.38138704,9.85306428 C8.24767678,9.89169169 8.14978177,9.87720641 8.25483983,9.83375057 C8.31214423,9.80719423 8.35512253,9.77822367 8.46495595,9.67924094 C8.5150973,9.63578511 8.56285096,9.60198613 8.57001401,9.60440034 L8.57478938,9.60440034 Z M8.5580756,10.0244734 C8.57001401,10.019645 8.57240169,10.0413729 8.57240169,10.1162135 L8.57240169,10.212782 L8.50315888,10.2514094 C8.46495595,10.2731373 8.42197765,10.2996937 8.41003924,10.3117647 C8.39571314,10.3238358 8.34557179,10.3455637 8.29543045,10.3576348 C8.2452891,10.3721201 8.17127092,10.3817769 8.13306799,10.3817769 L8.06382518,10.3817769 L8.09247738,10.3552206 C8.10919116,10.3407353 8.13545567,10.3214216 8.15216945,10.314179 C8.16888324,10.3069363 8.26200288,10.2393384 8.35989789,10.1644978 C8.4577929,10.0896572 8.54613718,10.0244734 8.55568791,10.0220592 L8.5580756,10.0244734 Z" fill="#000"></path>
        <polygon stroke="#000" points="7 0 13.5 3.5 13.5 10.5 7 14 0.5 10.5 0.5 3.5"></polygon>
    </g>
</svg>
