<?xml version="1.0" encoding="UTF-8"?>
<svg width="333px" height="44px" viewBox="0 0 333 44" version="1.1" xmlns="http://www.w3.org/2000/svg" xmlns:xlink="http://www.w3.org/1999/xlink">
    <g stroke="none" stroke-width="1" fill="none" fill-rule="evenodd">
        <path d="M199.62793,13.4394531 L204.71875,13.4394531 C207.012381,13.4394531 208.696609,13.8287721 209.771484,14.6074219 C210.84636,15.3860716 211.383789,16.5624921 211.383789,18.1367188 C211.383789,19.2115939 211.05583,20.1066045 210.399902,20.8217773 C209.743975,21.5369502 208.785488,21.9960927 207.524414,22.1992188 L207.524414,22.2753906 C209.005541,22.4954438 210.095211,22.9630498 210.793457,23.6782227 C211.491703,24.3933955 211.84082,25.3899676 211.84082,26.6679688 C211.84082,28.3776127 211.273769,29.6936803 210.139648,30.6162109 C209.005528,31.5387416 207.397471,32 205.31543,32 L199.62793,32 L199.62793,13.4394531 Z M200.922852,21.7041016 L205.010742,21.7041016 C206.75424,21.7041016 208.021643,21.4142282 208.812988,20.8344727 C209.604333,20.2547172 210,19.3470114 210,18.1113281 C210,16.8756449 209.553553,15.9785184 208.660645,15.4199219 C207.767736,14.8613253 206.436858,14.5820312 204.667969,14.5820312 L200.922852,14.5820312 L200.922852,21.7041016 Z M200.922852,22.8466797 L200.922852,30.8574219 L205.290039,30.8574219 C208.726254,30.8574219 210.444336,29.4609515 210.444336,26.6679688 C210.444336,24.12043 208.633156,22.8466797 205.010742,22.8466797 L200.922852,22.8466797 Z M216.703125,18.2001953 L216.703125,27.1376953 C216.703125,28.5257231 216.995114,29.5349903 217.579102,30.1655273 C218.163089,30.7960644 219.068679,31.1113281 220.295898,31.1113281 C221.937834,31.1113281 223.145992,30.6966187 223.92041,29.8671875 C224.694828,29.0377563 225.082031,27.6878349 225.082031,25.8173828 L225.082031,18.2001953 L226.326172,18.2001953 L226.326172,32 L225.259766,32 L225.03125,30.0957031 L224.955078,30.0957031 C224.057938,31.5345124 222.462577,32.2539062 220.168945,32.2539062 C217.028956,32.2539062 215.458984,30.57391 215.458984,27.2138672 L215.458984,18.2001953 L216.703125,18.2001953 Z M232.204102,32 L230.947266,32 L230.947266,18.2001953 L232.204102,18.2001953 L232.204102,32 Z M230.769531,14.3662109 C230.769531,13.5537069 231.03613,13.1474609 231.569336,13.1474609 C231.831707,13.1474609 232.036946,13.2532542 232.185059,13.4648438 C232.333171,13.6764333 232.407227,13.9768861 232.407227,14.3662109 C232.407227,14.7470722 232.333171,15.0475249 232.185059,15.2675781 C232.036946,15.4876313 231.831707,15.5976562 231.569336,15.5976562 C231.03613,15.5976562 230.769531,15.1871786 230.769531,14.3662109 Z M238.082031,32 L236.825195,32 L236.825195,12.2460938 L238.082031,12.2460938 L238.082031,32 Z M247.755859,17.9335938 C248.754562,17.9335938 249.617835,18.1155581 250.345703,18.4794922 C251.073571,18.8434263 251.725258,19.4654904 252.300781,20.3457031 L252.376953,20.3457031 C252.326172,19.2792915 252.300781,18.2340546 252.300781,17.2099609 L252.300781,12.2460938 L253.544922,12.2460938 L253.544922,32 L252.719727,32 L252.402344,29.8925781 L252.300781,29.8925781 C251.251297,31.4668047 249.744801,32.2539062 247.78125,32.2539062 C245.876944,32.2539062 244.421229,31.6614643 243.414062,30.4765625 C242.406896,29.2916607 241.90332,27.5651155 241.90332,25.296875 C241.90332,22.9101443 242.402664,21.0862693 243.401367,19.8251953 C244.40007,18.5641213 245.851553,17.9335938 247.755859,17.9335938 Z M247.755859,19.0761719 C246.249341,19.0761719 245.117354,19.6051379 244.359863,20.6630859 C243.602373,21.7210339 243.223633,23.2571514 243.223633,25.2714844 C243.223633,29.1816602 244.742823,31.1367188 247.78125,31.1367188 C249.338549,31.1367188 250.481116,30.6839238 251.208984,29.7783203 C251.936853,28.8727168 252.300781,27.3789167 252.300781,25.296875 L252.300781,25.0810547 C252.300781,22.9482315 251.9432,21.4142299 251.228027,20.4790039 C250.512854,19.5437779 249.355477,19.0761719 247.755859,19.0761719 Z M275.393555,32 L265.25,32 L265.25,13.4394531 L275.393555,13.4394531 L275.393555,14.6328125 L266.544922,14.6328125 L266.544922,21.6533203 L274.898438,21.6533203 L274.898438,22.8466797 L266.544922,22.8466797 L266.544922,30.8066406 L275.393555,30.8066406 L275.393555,32 Z M284.331055,17.9335938 C285.329758,17.9335938 286.19303,18.1155581 286.920898,18.4794922 C287.648767,18.8434263 288.300453,19.4654904 288.875977,20.3457031 L288.952148,20.3457031 C288.901367,19.2792915 288.875977,18.2340546 288.875977,17.2099609 L288.875977,12.2460938 L290.120117,12.2460938 L290.120117,32 L289.294922,32 L288.977539,29.8925781 L288.875977,29.8925781 C287.826492,31.4668047 286.319997,32.2539062 284.356445,32.2539062 C282.452139,32.2539062 280.996424,31.6614643 279.989258,30.4765625 C278.982091,29.2916607 278.478516,27.5651155 278.478516,25.296875 C278.478516,22.9101443 278.97786,21.0862693 279.976562,19.8251953 C280.975265,18.5641213 282.426748,17.9335938 284.331055,17.9335938 Z M284.331055,19.0761719 C282.824537,19.0761719 281.692549,19.6051379 280.935059,20.6630859 C280.177568,21.7210339 279.798828,23.2571514 279.798828,25.2714844 C279.798828,29.1816602 281.318019,31.1367188 284.356445,31.1367188 C285.913745,31.1367188 287.056311,30.6839238 287.78418,29.7783203 C288.512048,28.8727168 288.875977,27.3789167 288.875977,25.296875 L288.875977,25.0810547 C288.875977,22.9482315 288.518396,21.4142299 287.803223,20.4790039 C287.08805,19.5437779 285.930672,19.0761719 284.331055,19.0761719 Z M296.010742,32 L294.753906,32 L294.753906,18.2001953 L296.010742,18.2001953 L296.010742,32 Z M294.576172,14.3662109 C294.576172,13.5537069 294.842771,13.1474609 295.375977,13.1474609 C295.638348,13.1474609 295.843586,13.2532542 295.991699,13.4648438 C296.139812,13.6764333 296.213867,13.9768861 296.213867,14.3662109 C296.213867,14.7470722 296.139812,15.0475249 295.991699,15.2675781 C295.843586,15.4876313 295.638348,15.5976562 295.375977,15.5976562 C294.842771,15.5976562 294.576172,15.1871786 294.576172,14.3662109 Z M304.275391,31.1367188 C305.070968,31.1367188 305.764971,31.0690111 306.357422,30.9335938 L306.357422,31.9492188 C305.748044,32.1523448 305.045577,32.2539062 304.25,32.2539062 C303.031244,32.2539062 302.132002,31.9280632 301.552246,31.2763672 C300.972491,30.6246712 300.682617,29.6005929 300.682617,28.2041016 L300.682617,19.2919922 L298.638672,19.2919922 L298.638672,18.5556641 L300.682617,17.984375 L301.317383,14.8613281 L301.964844,14.8613281 L301.964844,18.2001953 L306.014648,18.2001953 L306.014648,19.2919922 L301.964844,19.2919922 L301.964844,28.0263672 C301.964844,29.0843152 302.15104,29.867185 302.523438,30.375 C302.895835,30.882815 303.479814,31.1367188 304.275391,31.1367188 Z M320.753906,25.0810547 C320.753906,27.332368 320.208013,29.0906512 319.116211,30.355957 C318.024409,31.6212628 316.517913,32.2539062 314.59668,32.2539062 C313.386387,32.2539062 312.319992,31.961917 311.397461,31.3779297 C310.47493,30.7939424 309.768232,29.9560601 309.277344,28.8642578 C308.786456,27.7724555 308.541016,26.5114004 308.541016,25.0810547 C308.541016,22.8297413 309.086909,21.0756899 310.178711,19.8188477 C311.270513,18.5620054 312.768545,17.9335938 314.672852,17.9335938 C316.568694,17.9335938 318.056147,18.5704689 319.135254,19.8442383 C320.214361,21.1180077 320.753906,22.8635957 320.753906,25.0810547 Z M309.861328,25.0810547 C309.861328,26.9768975 310.278153,28.4558866 311.111816,29.5180664 C311.945479,30.5802462 313.124016,31.1113281 314.647461,31.1113281 C316.170906,31.1113281 317.349442,30.5802462 318.183105,29.5180664 C319.016768,28.4558866 319.433594,26.9768975 319.433594,25.0810547 C319.433594,23.1767483 319.012537,21.699875 318.17041,20.6503906 C317.328284,19.6009062 316.145515,19.0761719 314.62207,19.0761719 C313.098625,19.0761719 311.924321,19.5987903 311.099121,20.644043 C310.273922,21.6892956 309.861328,23.1682847 309.861328,25.0810547 Z M330.008789,17.9335938 C330.592776,17.9335938 331.219072,17.9928379 331.887695,18.1113281 L331.646484,19.3173828 C331.070961,19.1735019 330.474287,19.1015625 329.856445,19.1015625 C328.680007,19.1015625 327.715173,19.6009065 326.961914,20.5996094 C326.208655,21.5983123 325.832031,22.8593674 325.832031,24.3828125 L325.832031,32 L324.575195,32 L324.575195,18.2001953 L325.641602,18.2001953 L325.768555,20.6884766 L325.857422,20.6884766 C326.424482,19.6728465 327.029619,18.9598002 327.672852,18.5493164 C328.316084,18.1388326 329.094722,17.9335938 330.008789,17.9335938 Z" fill="#FFFFFF"></path>
        <path d="M6.864,18.688 C7.9906723,18.688 8.92666294,18.8049988 9.672,19.039 C10.4173371,19.2730012 10.9806648,19.5633316 11.362,19.91 C12.1766707,19.0259956 13.1126614,18.4106684 14.17,18.064 C14.2913339,18.1506671 14.4126661,18.2763325 14.534,18.441 C14.6553339,18.6056675 14.7593329,18.7833324 14.846,18.974 C14.9326671,19.1646676 15.0019997,19.3553324 15.054,19.546 C15.1060003,19.7366676 15.132,19.8926661 15.132,20.014 L14.794,20.638 L12.064,20.638 C12.2546676,20.8806679 12.4323325,21.196998 12.597,21.587 C12.7616675,21.9770019 12.844,22.440664 12.844,22.978 C12.844,23.5500029 12.7226679,24.0873308 12.48,24.59 C12.2373321,25.0926692 11.8690025,25.538998 11.375,25.929 C10.8809975,26.3190019 10.2570038,26.6266655 9.503,26.852 C8.74899623,27.0773345 7.86933836,27.19 6.864,27.19 C6.56933186,27.19 6.30500117,27.1856667 6.071,27.177 C5.83699883,27.1683333 5.6333342,27.1466668 5.46,27.112 C5.39066632,27.2160005 5.31700039,27.3416659 5.239,27.489 C5.16099961,27.6363341 5.122,27.7793326 5.122,27.918 C5.122,28.2126681 5.32999792,28.4466658 5.746,28.62 C6.16200208,28.7933342 6.69066346,28.9493326 7.332,29.088 C7.97333654,29.2266674 8.66232965,29.3826658 9.399,29.556 C10.1356704,29.7293342 10.8246635,29.9589986 11.466,30.245 C12.1073365,30.5310014 12.6446645,30.9036644 13.078,31.363 C13.5113355,31.8223356 13.7366666,32.4159964 13.754,33.144 C13.7713334,33.8373368 13.5980018,34.452664 13.234,34.99 C12.8699982,35.527336 12.3716698,35.9823315 11.739,36.355 C11.1063302,36.7276685 10.3610043,37.0136657 9.503,37.213 C8.64499571,37.4123343 7.73067152,37.512 6.76,37.512 C5.61599428,37.512 4.64100403,37.4210009 3.835,37.239 C3.02899597,37.0569991 2.37466918,36.8100016 1.872,36.498 C1.36933082,36.1859984 1.00100117,35.8306687 0.767,35.432 C0.53299883,35.0333313 0.416,34.6173355 0.416,34.184 C0.416,33.6986642 0.51133238,33.2826684 0.702,32.936 C0.89266762,32.5893316 1.1613316,32.2860013 1.508,32.026 C1.8546684,31.7659987 2.25766437,31.5493342 2.717,31.376 C3.17633563,31.2026658 3.68333056,31.0466674 4.238,30.908 C3.9779987,30.8386663 3.72666788,30.7520005 3.484,30.648 C3.24133212,30.5439995 3.02466762,30.4183341 2.834,30.271 C2.64333238,30.1236659 2.48733394,29.9503343 2.366,29.751 C2.24466606,29.5516657 2.184,29.3220013 2.184,29.062 C2.184,28.8366655 2.25333264,28.6156677 2.392,28.399 C2.53066736,28.1823322 2.71266554,27.9830009 2.938,27.801 C3.16333446,27.6189991 3.4059987,27.4543341 3.666,27.307 C3.9260013,27.1596659 4.1859987,27.0340005 4.446,26.93 C3.35399454,26.6873321 2.48733654,26.2150035 1.846,25.513 C1.20466346,24.8109965 0.884,23.9140055 0.884,22.822 C0.884,21.5219935 1.42132796,20.5080036 2.496,19.78 C3.57067204,19.0519964 5.02665748,18.688 6.864,18.688 Z M10.14,33.976 C10.14,33.5079977 9.99700143,33.1310014 9.711,32.845 C9.42499857,32.5589986 9.05666892,32.3250009 8.606,32.143 C8.15533108,31.9609991 7.64833615,31.8050006 7.085,31.675 C6.52166385,31.5449993 5.96266944,31.3933342 5.408,31.22 C4.95733108,31.5666684 4.63666762,31.9133316 4.446,32.26 C4.25533238,32.6066684 4.16,33.0226642 4.16,33.508 C4.16,34.3053373 4.43299727,34.9249978 4.979,35.367 C5.52500273,35.8090022 6.29199506,36.03 7.28,36.03 C8.25067152,36.03 8.96999766,35.8263354 9.438,35.419 C9.90600234,35.0116646 10.14,34.5306694 10.14,33.976 Z M4.628,22.952 C4.628,23.8533378 4.77966515,24.5379977 5.083,25.006 C5.38633485,25.4740023 5.97999558,25.708 6.864,25.708 C7.71333758,25.708 8.29833173,25.469669 8.619,24.993 C8.93966827,24.5163309 9.1,23.8360044 9.1,22.952 C9.1,22.0159953 8.93533498,21.3183356 8.606,20.859 C8.27666502,20.3996644 7.69600416,20.17 6.864,20.17 C5.997329,20.17 5.40800156,20.3953311 5.096,20.846 C4.78399844,21.2966689 4.628,21.9986619 4.628,22.952 Z M20.664,32.312 L16.582,20.638 C16.3393321,20.5513329 16.1010012,20.4603338 15.867,20.365 C15.6329988,20.2696662 15.4120011,20.1526674 15.204,20.014 L15.204,19 L21.782,19 L21.782,19.988 C21.5393321,20.1266674 21.2966679,20.2523328 21.054,20.365 C20.8113321,20.4776672 20.5600013,20.5686663 20.3,20.638 L22.094,27.294 L22.432,29.296 L22.484,29.296 L22.952,27.216 L25.708,19.156 L26.982,19 L29.946,27.242 L30.492,29.296 L30.544,29.296 L30.96,27.268 L32.52,20.638 C32.3293324,20.6033332 32.1083346,20.5340005 31.857,20.43 C31.6056654,20.3259995 31.3500013,20.1873342 31.09,20.014 L31.09,19 L36.108,19 L36.108,20.014 C35.7439982,20.2566679 35.2500031,20.4646658 34.626,20.638 L31.012,32 L28.568,32.312 L26.332,25.89 L25.838,23.732 L25.76,23.732 L25.162,25.89 L23.082,32 L20.664,32.312 Z M40.314,19.572 L39.43,19.572 C39.3259995,19.3119987 39.2090007,19.0086684 39.079,18.662 C38.9489994,18.3153316 38.8146674,17.9513352 38.676,17.57 C38.5373327,17.1886648 38.407334,16.8116685 38.286,16.439 C38.1646661,16.0663315 38.0693337,15.7240016 38,15.412 C38.6066697,14.8919974 39.3823286,14.4413352 40.327,14.06 C41.2716714,13.6786648 42.4199933,13.488 43.772,13.488 C44.7253381,13.488 45.5486632,13.6093321 46.242,13.852 C46.9353368,14.0946679 47.5116644,14.4326645 47.971,14.866 C48.4303357,15.2993355 48.7683323,15.8019971 48.985,16.374 C49.2016678,16.9460029 49.31,17.56133 49.31,18.22 C49.31,19.2773386 49.0673358,20.2783286 48.582,21.223 C48.0966643,22.1676714 47.4986702,23.0516625 46.788,23.875 C46.0773298,24.6983374 45.3146708,25.4609965 44.5,26.163 C43.6853293,26.8650035 42.94867,27.5019971 42.29,28.074 L40.938,28.984 L40.938,29.088 L42.524,28.932 L46.996,28.932 L48.27,26.02 L49.154,26.02 C49.2060003,26.4360021 49.2623331,26.9213306 49.323,27.476 C49.383667,28.0306694 49.4399998,28.5896638 49.492,29.153 C49.5440003,29.7163361 49.5873332,30.2536641 49.622,30.765 C49.6566669,31.2763359 49.674,31.6879984 49.674,32 L37.766,32 L37.766,30.336 C38.2166689,29.9373313 38.7279972,29.4736693 39.3,28.945 C39.8720029,28.4163307 40.4526637,27.8356698 41.042,27.203 C41.6313363,26.5703302 42.2119972,25.8986702 42.784,25.188 C43.3560029,24.4773298 43.8673311,23.7536703 44.318,23.017 C44.7686689,22.2803296 45.128332,21.5306705 45.397,20.768 C45.665668,20.0053295 45.8,19.2600036 45.8,18.532 C45.8,17.5786619 45.5443359,16.803003 45.033,16.205 C44.5216641,15.606997 43.7980047,15.308 42.862,15.308 C42.5673319,15.308 42.3030012,15.3253332 42.069,15.36 C41.8349989,15.3946668 41.5706682,15.4553329 41.276,15.542 L40.314,19.572 Z M64.774,29.816 C64.6353327,30.1106681 64.4143349,30.4096651 64.111,30.713 C63.8076652,31.0163348 63.4350022,31.2849988 62.993,31.519 C62.5509978,31.7530012 62.0396696,31.9436659 61.459,32.091 C60.8783305,32.2383341 60.2500034,32.312 59.574,32.312 C58.499328,32.312 57.5460042,32.1516683 56.714,31.831 C55.8819959,31.5103317 55.1886695,31.051003 54.634,30.453 C54.0793306,29.854997 53.6590015,29.1400042 53.373,28.308 C53.0869986,27.4759958 52.944,26.5400052 52.944,25.5 C52.944,23.2813222 53.5246609,21.5913391 54.686,20.43 C55.8473392,19.2686609 57.4593231,18.688 59.522,18.688 C60.4060045,18.688 61.2336628,18.8093321 62.005,19.052 C62.7763372,19.2946679 63.4176641,19.6933306 63.929,20.248 C64.4403359,20.8026694 64.7956657,21.5306622 64.995,22.432 C65.1943344,23.3333378 65.1813345,24.4339935 64.956,25.734 L56.974,25.734 C56.9913335,27.1033402 57.3423299,28.1953293 58.027,29.01 C58.7116701,29.8246707 59.7213267,30.232 61.056,30.232 C61.6280029,30.232 62.2216636,30.1453342 62.837,29.972 C63.4523364,29.7986658 63.9333316,29.5733347 64.28,29.296 L64.774,29.816 Z M59.418,20.17 C59.0713316,20.17 58.763668,20.2306661 58.495,20.352 C58.226332,20.4733339 57.9923344,20.6943317 57.793,21.015 C57.5936657,21.3356683 57.433334,21.7689973 57.312,22.315 C57.1906661,22.8610027 57.1040003,23.5499958 57.052,24.382 L61.238,24.382 C61.359334,23.0299932 61.2813348,21.9900036 61.004,21.262 C60.7266653,20.5339964 60.1980039,20.17 59.418,20.17 Z M75.246,12.448 C75.9566703,12.448 76.5936639,12.5129993 77.157,12.643 C77.7203362,12.7730006 78.1493319,12.8986661 78.444,13.02 C78.3919998,13.5920029 78.2793342,14.1813303 78.106,14.788 C77.9326658,15.3946697 77.7766674,15.8973313 77.638,16.296 L76.754,16.296 L75.61,13.826 C75.1593311,13.826 74.7823349,13.8736662 74.479,13.969 C74.1756652,14.0643338 73.933001,14.2506653 73.751,14.528 C73.5689991,14.8053347 73.4346671,15.1996641 73.348,15.711 C73.2613329,16.2223359 73.218,16.8853293 73.218,17.7 L73.218,19 L75.974,19 L75.974,20.638 L73.218,20.638 L73.218,30.362 C74.1193379,30.4660005 74.9513296,30.6739984 75.714,30.986 L75.714,32 L67.758,32 L67.758,30.986 C68.2953361,30.6739984 68.8673303,30.4660005 69.474,30.362 L69.474,20.638 L67.498,20.638 L67.498,19.624 C68.1046697,19.2426648 68.7633298,18.9566676 69.474,18.766 L69.474,17.856 C69.474,16.781328 69.6256652,15.8930035 69.929,15.191 C70.2323349,14.4889965 70.6439974,13.9343354 71.164,13.527 C71.6840026,13.1196646 72.2949965,12.8380008 72.997,12.682 C73.6990036,12.5259992 74.4486627,12.448 75.246,12.448 Z M93.8820001,32 L86.8360001,32 L86.8360001,30.986 C87.0440011,30.8646661 87.2866653,30.7476672 87.5640001,30.635 C87.8413348,30.5223328 88.1273319,30.4313337 88.4220001,30.362 L88.4220001,20.638 L83.6900001,20.638 L83.6900001,30.362 C84.0366685,30.3966668 84.3789984,30.4746661 84.7170001,30.596 C85.0550017,30.7173339 85.3713319,30.8473326 85.6660001,30.986 L85.6660001,32 L78.2300001,32 L78.2300001,30.986 C78.7673361,30.6739984 79.3393304,30.4660005 79.9460001,30.362 L79.9460001,20.638 L77.9700001,20.638 L77.9700001,19.624 C78.5766698,19.2426648 79.2353298,18.9566676 79.9460001,18.766 L79.9460001,17.856 C79.9460001,16.781328 80.1453314,15.8930035 80.5440001,15.191 C80.9426687,14.4889965 81.4583302,13.9343354 82.0910001,13.527 C82.7236699,13.1196646 83.4343294,12.8380008 84.2230001,12.682 C85.0116707,12.5259992 85.8046627,12.448 86.6020001,12.448 C87.052669,12.448 87.5596639,12.478333 88.1230001,12.539 C88.6863362,12.599667 89.236664,12.6819995 89.7740001,12.786 C90.3113361,12.8900005 90.8053311,13.0069993 91.2560001,13.137 C91.706669,13.2670006 92.0533322,13.4013326 92.2960001,13.54 C92.2439998,14.1120029 92.1400008,14.6276644 91.9840001,15.087 C91.8279993,15.5463356 91.6633343,15.9493316 91.4900001,16.296 L89.3060001,16.296 L87.3820001,13.826 C86.9313311,13.826 86.4850023,13.8736662 86.0430001,13.969 C85.6009978,14.0643338 85.2066685,14.2506653 84.8600001,14.528 C84.5133317,14.8053347 84.2316678,15.1996641 84.0150001,15.711 C83.7983323,16.2223359 83.6900001,16.8853293 83.6900001,17.7 L83.6900001,19 L86.1860001,19 C86.4806682,19 86.8533311,18.9870001 87.3040001,18.961 C87.754669,18.9349999 88.2269976,18.9090001 88.7210001,18.883 C89.2150025,18.8569999 89.6916644,18.8266668 90.1510001,18.792 C90.6103357,18.7573332 90.9873319,18.7226668 91.2820001,18.688 L92.1660001,18.688 L92.1660001,30.362 C92.5126685,30.4486671 92.8246653,30.5396662 93.1020001,30.635 C93.3793348,30.7303338 93.6393322,30.8473326 93.8820001,30.986 L93.8820001,32 Z M107.188,29.894 C107.066666,30.2406684 106.867335,30.5569986 106.59,30.843 C106.312665,31.1290014 105.979002,31.3846655 105.589,31.61 C105.198998,31.8353345 104.757003,32.0086661 104.263,32.13 C103.768998,32.2513339 103.253336,32.312 102.716,32.312 C101.571994,32.312 100.588338,32.1516683 99.7650001,31.831 C98.9416626,31.5103317 98.2613361,31.051003 97.7240001,30.453 C97.1866641,29.854997 96.7880014,29.1356709 96.5280001,28.295 C96.2679988,27.4543291 96.1380001,26.5226718 96.1380001,25.5 C96.1380001,23.2986557 96.7403274,21.6130058 97.9450001,20.443 C99.1496728,19.2729941 100.861322,18.688 103.08,18.688 C103.929338,18.688 104.70933,18.7789991 105.42,18.961 C106.13067,19.1430009 106.719998,19.3553321 107.188,19.598 C107.153333,19.8926681 107.105667,20.2176649 107.045,20.573 C106.984333,20.9283351 106.915,21.2836649 106.837,21.639 C106.759,21.9943351 106.668001,22.3409983 106.564,22.679 C106.46,23.0170017 106.356001,23.2986655 106.252,23.524 L104.978,23.524 L103.886,20.43 C103.764666,20.3433329 103.634667,20.2783335 103.496,20.235 C103.357333,20.1916664 103.149335,20.17 102.872,20.17 C102.421331,20.17 102.031335,20.2523325 101.702,20.417 C101.372665,20.5816675 101.091001,20.8633313 100.857,21.262 C100.622999,21.6606687 100.449667,22.18933 100.337,22.848 C100.224333,23.50667 100.168,24.3213285 100.168,25.292 C100.168,26.0026702 100.245999,26.656997 100.402,27.255 C100.558001,27.853003 100.796332,28.3729978 101.117,28.815 C101.437668,29.2570022 101.840664,29.6036654 102.326,29.855 C102.811336,30.1063346 103.38333,30.232 104.042,30.232 C104.64867,30.232 105.177331,30.1453342 105.628,29.972 C106.078669,29.7986658 106.459999,29.5906679 106.772,29.348 L107.188,29.894 Z M116.698,32 L109.522,32 L109.522,30.986 C109.782001,30.8473326 110.050665,30.7303338 110.328,30.635 C110.605335,30.5396662 110.908665,30.4486671 111.238,30.362 L111.238,20.846 L109.522,20.638 L109.522,19.624 C109.782001,19.5199995 110.106998,19.4160005 110.497,19.312 C110.887002,19.2079995 111.298665,19.1170004 111.732,19.039 C112.165336,18.9609996 112.589998,18.891667 113.006,18.831 C113.422002,18.770333 113.785999,18.7226668 114.098,18.688 L114.982,18.688 L114.982,30.362 C115.328668,30.4486671 115.640665,30.5396662 115.918,30.635 C116.195335,30.7303338 116.455332,30.8473326 116.698,30.986 L116.698,32 Z M110.796,14.736 C110.796,14.1293303 111.003998,13.6526684 111.42,13.306 C111.836002,12.9593316 112.37333,12.786 113.032,12.786 C113.69067,12.786 114.227998,12.9593316 114.644,13.306 C115.060002,13.6526684 115.268,14.1293303 115.268,14.736 C115.268,15.3253363 115.060002,15.7933316 114.644,16.14 C114.227998,16.4866684 113.69067,16.66 113.032,16.66 C112.37333,16.66 111.836002,16.4866684 111.42,16.14 C111.003998,15.7933316 110.796,15.3253363 110.796,14.736 Z M130.784,29.816 C130.645333,30.1106681 130.424335,30.4096651 130.121,30.713 C129.817665,31.0163348 129.445002,31.2849988 129.003,31.519 C128.560998,31.7530012 128.04967,31.9436659 127.469,32.091 C126.888331,32.2383341 126.260003,32.312 125.584,32.312 C124.509328,32.312 123.556004,32.1516683 122.724,31.831 C121.891996,31.5103317 121.19867,31.051003 120.644,30.453 C120.089331,29.854997 119.669002,29.1400042 119.383,28.308 C119.096999,27.4759958 118.954,26.5400052 118.954,25.5 C118.954,23.2813222 119.534661,21.5913391 120.696,20.43 C121.857339,19.2686609 123.469323,18.688 125.532,18.688 C126.416005,18.688 127.243663,18.8093321 128.015,19.052 C128.786337,19.2946679 129.427664,19.6933306 129.939,20.248 C130.450336,20.8026694 130.805666,21.5306622 131.005,22.432 C131.204334,23.3333378 131.191335,24.4339935 130.966,25.734 L122.984,25.734 C123.001334,27.1033402 123.35233,28.1953293 124.037,29.01 C124.72167,29.8246707 125.731327,30.232 127.066,30.232 C127.638003,30.232 128.231664,30.1453342 128.847,29.972 C129.462337,29.7986658 129.943332,29.5733347 130.29,29.296 L130.784,29.816 Z M125.428,20.17 C125.081332,20.17 124.773668,20.2306661 124.505,20.352 C124.236332,20.4733339 124.002334,20.6943317 123.803,21.015 C123.603666,21.3356683 123.443334,21.7689973 123.322,22.315 C123.200666,22.8610027 123.114,23.5499958 123.062,24.382 L127.248,24.382 C127.369334,23.0299932 127.291335,21.9900036 127.014,21.262 C126.736665,20.5339964 126.208004,20.17 125.428,20.17 Z M149.342,32 L142.452,32 L142.452,30.986 C142.677335,30.8646661 142.898332,30.7563338 143.115,30.661 C143.331668,30.5656662 143.587332,30.4660005 143.882,30.362 L143.882,24.252 C143.882,23.1599945 143.726002,22.3063364 143.414,21.691 C143.101999,21.0756636 142.547337,20.768 141.75,20.768 C141.09133,20.768 140.523669,20.9803312 140.047,21.405 C139.570331,21.8296688 139.210668,22.4059964 138.968,23.134 L138.968,30.362 C139.245335,30.4313337 139.492332,30.5136662 139.709,30.609 C139.925668,30.7043338 140.155332,30.8299992 140.398,30.986 L140.398,32 L133.508,32 L133.508,30.986 C133.941336,30.7606655 134.51333,30.5526676 135.224,30.362 L135.224,20.846 L133.508,20.638 L133.508,19.624 C133.733335,19.5199995 134.027998,19.4203338 134.392,19.325 C134.756002,19.2296662 135.150331,19.1386671 135.575,19.052 C135.999669,18.9653329 136.432998,18.891667 136.875,18.831 C137.317002,18.770333 137.719998,18.7226668 138.084,18.688 L138.968,18.688 L138.968,21.366 L138.994,21.366 C139.358002,20.6379964 139.903996,20.0096693 140.632,19.481 C141.360004,18.9523307 142.243995,18.688 143.284,18.688 C143.960003,18.688 144.566664,18.7703325 145.104,18.935 C145.641336,19.0996675 146.096332,19.3899979 146.469,19.806 C146.841669,20.2220021 147.127666,20.7809965 147.327,21.483 C147.526334,22.1850035 147.626,23.073328 147.626,24.148 L147.626,30.362 C148.319337,30.4833339 148.891331,30.6913319 149.342,30.986 L149.342,32 Z M162.31,29.894 C162.188666,30.2406684 161.989335,30.5569986 161.712,30.843 C161.434665,31.1290014 161.101002,31.3846655 160.711,31.61 C160.320998,31.8353345 159.879003,32.0086661 159.385,32.13 C158.890998,32.2513339 158.375336,32.312 157.838,32.312 C156.693994,32.312 155.710338,32.1516683 154.887,31.831 C154.063663,31.5103317 153.383336,31.051003 152.846,30.453 C152.308664,29.854997 151.910001,29.1356709 151.65,28.295 C151.389999,27.4543291 151.26,26.5226718 151.26,25.5 C151.26,23.2986557 151.862327,21.6130058 153.067,20.443 C154.271673,19.2729941 155.983322,18.688 158.202,18.688 C159.051338,18.688 159.83133,18.7789991 160.542,18.961 C161.25267,19.1430009 161.841998,19.3553321 162.31,19.598 C162.275333,19.8926681 162.227667,20.2176649 162.167,20.573 C162.106333,20.9283351 162.037001,21.2836649 161.959,21.639 C161.881,21.9943351 161.790001,22.3409983 161.686,22.679 C161.582,23.0170017 161.478001,23.2986655 161.374,23.524 L160.1,23.524 L159.008,20.43 C158.886666,20.3433329 158.756667,20.2783335 158.618,20.235 C158.479333,20.1916664 158.271335,20.17 157.994,20.17 C157.543331,20.17 157.153335,20.2523325 156.824,20.417 C156.494665,20.5816675 156.213001,20.8633313 155.979,21.262 C155.744999,21.6606687 155.571667,22.18933 155.459,22.848 C155.346333,23.50667 155.29,24.3213285 155.29,25.292 C155.29,26.0026702 155.367999,26.656997 155.524,27.255 C155.680001,27.853003 155.918332,28.3729978 156.239,28.815 C156.559668,29.2570022 156.962664,29.6036654 157.448,29.855 C157.933336,30.1063346 158.50533,30.232 159.164,30.232 C159.77067,30.232 160.299331,30.1453342 160.75,29.972 C161.200669,29.7986658 161.581999,29.5906679 161.894,29.348 L162.31,29.894 Z M164.826,20.638 C164.565999,20.5686663 164.327668,20.4820005 164.111,20.378 C163.894332,20.2739995 163.673335,20.1526674 163.448,20.014 L163.448,19 L170.286,19 L170.286,19.988 C169.921998,20.2306679 169.428003,20.4473324 168.804,20.638 L171.43,27.164 L171.872,28.828 L171.924,28.828 L172.34,27.138 L174.368,20.638 C173.847998,20.5339995 173.371336,20.3260016 172.938,20.014 L172.938,19 L177.956,19 L177.956,20.014 C177.591998,20.2566679 177.098003,20.4646658 176.474,20.638 L172.236,32 C171.819998,33.1093389 171.404002,34.0149965 170.988,34.717 C170.571998,35.4190035 170.156002,35.9779979 169.74,36.394 C169.323998,36.8100021 168.908002,37.1003325 168.492,37.265 C168.075998,37.4296675 167.660002,37.5379997 167.244,37.59 C167.070666,37.4339992 166.914667,37.2390012 166.776,37.005 C166.637333,36.7709988 166.516001,36.519668 166.412,36.251 C166.308,35.982332 166.221334,35.7093347 166.152,35.432 C166.082666,35.1546653 166.039334,34.8946679 166.022,34.652 L166.36,34.028 L169.532,34.028 C169.688001,33.7853321 169.822333,33.5253347 169.935,33.248 C170.047667,32.9706653 170.181999,32.5546694 170.338,32 L164.826,20.638 Z" fill="#FFFFFF"></path>
        <path d="M187.5,6 L187.5,38" stroke-opacity="0.5" stroke="#FFFFFF"></path>
    </g>
</svg>
