<?xml version="1.0" encoding="UTF-8"?>
<svg width="44px" height="44px" viewBox="0 0 44 44" version="1.1" xmlns="http://www.w3.org/2000/svg" xmlns:xlink="http://www.w3.org/1999/xlink">
    <defs>
        <polygon id="path-1" points="22 0 41.0525589 11 41.0525589 33 22 44 2.94744112 33 2.94744112 11"></polygon>
        <polygon id="path-3" points="22 0 41.0525589 11 41.0525589 33 22 44 2.94744112 33 2.94744112 11"></polygon>
        <mask id="mask-4" maskContentUnits="userSpaceOnUse" maskUnits="objectBoundingBox" x="0" y="0" width="44" height="44" fill="white">
            <use xlink:href="#path-3"></use>
        </mask>
    </defs>
    <g id="Page-1" stroke="none" stroke-width="1" fill="none" fill-rule="evenodd">
        <g id="Icon/Logo">
            <g id="Shape">
                <mask id="mask-2" fill="white">
                    <use xlink:href="#path-1"></use>
                </mask>
                <g id="Mask"></g>
                <path d="M31.684896,6.97398882 C31.6632929,6.98839087 31.5034302,7.01287435 31.3291654,7.03159701 C31.1541805,7.05031967 30.9431905,7.07480315 30.8610989,7.08632479 L30.7098774,7.10648766 L30.7156382,7.40677035 C30.7206789,7.68761028 30.7134779,7.71641437 30.6047424,7.88203792 C30.5399332,7.97565123 30.4175158,8.17727989 30.3311035,8.31409935 C30.187083,8.55173313 30.1539583,8.58053723 29.8507952,8.7533618 C29.4792224,8.96219149 28.7389571,9.21422732 27.8417096,9.43025803 C27.5320656,9.50226827 27.0193527,9.63908772 26.7003473,9.73990206 C26.3820621,9.83351537 25.8196621,9.98473687 25.4516898,10.0783502 C24.4183429,10.323185 23.526136,10.64003 22.6987384,11.0504884 C22.2904403,11.2521171 22.0888117,11.3097252 22.2645167,11.1729058 C22.3919748,11.0720915 23.504533,10.4672055 23.7781719,10.3519891 C23.9027496,10.2943809 23.9978031,10.2439737 23.9884418,10.2367727 C23.9495562,10.1935666 23.4598866,10.3879942 23.2431358,10.5320147 C23.1135174,10.618427 22.7822703,10.7984526 22.5158324,10.928071 C21.6805136,11.3529314 21.3564676,11.5905652 20.578757,12.3754768 C20.2043037,12.757131 19.7866444,13.2035945 19.6570259,13.3764191 C19.4986034,13.5852488 19.3905881,13.7004651 19.3257788,13.7148672 C19.2753717,13.7292692 19.1745573,13.7940785 19.1097481,13.8660887 C18.9729287,14.0101092 18.9225215,14.0029081 18.9945318,13.8588877 C19.0233358,13.7868774 19.0233358,13.7508723 18.9945318,13.7220682 C18.9297225,13.657259 18.9369236,13.5852488 19.0233358,13.4268262 C19.066542,13.347615 19.080944,13.2972078 19.059341,13.3116099 C19.0377379,13.3260119 18.8793154,13.5708467 18.7064908,13.8660887 C18.3896458,14.3917634 17.9143782,15.1262679 17.85677,15.162273 C17.8423679,15.169474 17.8351669,15.0902627 17.8423679,14.9894484 C17.85677,14.8310259 17.8423679,14.7734177 17.7775587,14.6582013 C17.7343526,14.5861911 17.6839454,14.5213819 17.6695434,14.5213819 C17.6407393,14.5213819 17.568729,14.6437993 17.2806881,15.162273 C17.1726727,15.3567006 16.7406113,15.8103651 16.6974052,15.77436 C16.6830031,15.7599579 17.5399249,13.9813051 17.6839454,13.7292692 C17.7487546,13.6140529 17.8135638,13.4628314 17.8279659,13.3836201 C17.871172,13.1171822 18.0800017,12.7787341 18.4256509,12.4042809 C18.6056765,12.2026522 18.8073051,12.0010235 18.8793154,11.9506164 C19.5634126,11.4321426 19.8010464,11.2521171 19.8010464,11.237715 C19.8010464,11.2017099 19.5706137,11.3457304 19.4265932,11.4681478 C19.3401809,11.540158 18.9801297,11.7849928 18.6344806,12.0010235 C18.1160068,12.3250696 17.9431823,12.4618891 17.6335383,12.7643321 C17.4247086,12.9659607 17.2086778,13.1603884 17.1438686,13.1963935 C17.0718584,13.2395996 16.9998482,13.340414 16.9278379,13.4916355 C16.8702297,13.6140529 16.7190082,13.8660887 16.5965908,14.0533153 C16.4741734,14.2405419 16.3301529,14.4709747 16.2797458,14.564588 C16.2293386,14.6582013 16.042112,14.9462423 15.8620864,15.1910771 L15.5380403,15.6447416 L15.3868188,16.2568286 C15.2499994,16.8185084 15.127582,17.7330385 15.127582,18.1795019 C15.127582,18.2587132 15.0771748,18.3811306 14.9691594,18.5395531 C14.8827472,18.6763726 14.7531287,18.8852023 14.6811185,19.0004187 C14.5587011,19.2164494 14.5515001,19.2164494 14.4146806,19.2092483 C14.3354694,19.2020473 14.1986499,19.1588412 14.0978356,19.094032 C14.0042223,19.0364238 13.9034079,18.9860166 13.8674028,18.9860166 C13.8385987,18.9860166 13.8025936,18.9428105 13.7809905,18.8852023 C13.7665885,18.8275941 13.7233823,18.7411818 13.6873772,18.6835736 C13.6513721,18.6187644 13.6441711,18.5395531 13.6585731,18.4459398 C13.6801762,18.3019193 13.8241967,16.674488 13.8169956,16.6096788 C13.8097946,16.4584573 13.3849342,17.9778733 13.2049086,18.79879 C13.0608881,19.4468821 13.024883,19.8285364 13.0968933,19.9941599 C13.1473004,20.1309794 13.4785475,20.4550255 13.5649598,20.4550255 C13.6657741,20.4550255 13.6585731,20.5414377 13.5433567,20.8006746 C13.4497434,21.0095043 13.4497434,21.1103186 13.5361557,21.1103186 C13.5577588,21.1103186 13.6441711,21.1247207 13.7161813,21.1463237 C13.8746038,21.1895299 13.8962069,21.2759422 13.7737895,21.3839575 C13.6441711,21.4991739 13.3777332,21.8664261 13.3993363,21.9024312 C13.4065373,21.9168333 13.4929496,21.9528384 13.5793619,21.9744415 C13.6657741,21.9960446 13.7449854,22.0320497 13.7449854,22.0536527 C13.7449854,22.0968589 13.5289547,22.0968589 13.4065373,22.0536527 C13.3417281,22.0248486 13.2913209,22.0320497 13.2481148,22.0608538 C13.1905066,22.1040599 13.1977076,22.1112609 13.327326,22.1544671 C13.608166,22.2480804 13.5937639,22.2624824 13.0464861,22.6513377 C12.8520585,22.7881572 12.5712185,23.0185899 12.412796,23.1698114 L12.1319561,23.4362493 L12.1895643,23.5298626 C12.2255694,23.5946718 12.2471725,23.7098882 12.2471725,23.8755118 C12.2471725,24.1059445 12.2399714,24.1275476 12.1391571,24.2283619 C12.0743479,24.2859701 11.9879356,24.4011865 11.9519305,24.4803978 C11.8655182,24.6532223 11.5630752,25.0420776 11.5198691,25.0420776 C11.498266,25.0420776 11.4622609,24.9916705 11.4262557,24.9268612 C11.3686476,24.8116449 11.3686476,24.8116449 11.3326424,24.8908561 C11.3182404,24.9412633 11.1670189,25.142892 11.0013953,25.3445206 C10.8357718,25.5461493 10.6773493,25.747778 10.6485452,25.7909841 C10.5477308,25.9494066 10.5261278,25.9062005 10.2740919,25.0708817 C10.1804786,24.7612377 10.0724633,24.4659957 10.0364582,24.4011865 L9.97164894,24.2859701 L9.97164894,24.4227896 C9.97164894,24.5092019 9.94284484,24.5812121 9.89243767,24.6244182 C9.80602539,24.7036295 9.66920594,25.2941135 9.51798444,26.2230455 C9.46037625,26.6046998 9.40276806,26.8423336 9.36676294,26.8855397 C9.31635577,26.9431479 9.1435312,27.0511633 9.10032506,27.0511633 C9.09312403,27.0511633 9.0211138,26.9503489 8.93470151,26.8279315 C8.84828922,26.7055141 8.76187694,26.6119008 8.74747489,26.6119008 C8.70426875,26.6119008 8.4162278,25.9494066 8.39462473,25.7981851 C8.36582063,25.5821544 8.31541346,25.7117728 8.25780527,26.1582363 C8.22900118,26.367066 8.20019708,26.5470916 8.19299606,26.5542926 C8.16419196,26.5830967 8.09938275,26.4606793 8.02017149,26.2230455 C7.84014589,25.6757677 7.41528549,24.5740111 7.3576773,24.5092019 C7.29286809,24.4371916 7.04083225,23.3570381 7.04083225,23.1338063 C7.03363123,23.0545951 7.0264302,22.9609817 7.01202816,22.9249766 C6.98322406,22.8529664 6.9328169,24.8260469 6.9328169,26.057422 C6.9328169,26.6551069 6.94001792,26.7559213 7.00482713,26.8927407 C7.04083225,26.979153 7.09123942,27.1735807 7.11284249,27.3104001 C7.12724454,27.4544206 7.17045068,27.6416472 7.19925478,27.7280595 C7.27126501,27.9296882 7.26406399,27.9584923 7.18485273,27.886482 C7.12004351,27.8288738 7.11284249,27.8288738 7.09844044,27.9368892 C7.0840384,28.0088994 7.11284249,28.1169148 7.16324966,28.2321312 C7.27846604,28.484167 7.27126501,28.5993834 7.13444556,28.7073987 L7.01922918,28.793811 L7.09123942,29.0458468 C7.12724454,29.1826663 7.17045068,29.3410888 7.18485273,29.391496 C7.22085785,29.5571195 7.60971313,30.1836086 7.80414077,30.3852373 C7.90495511,30.4932526 8.04177456,30.6444741 8.10658377,30.7236854 L8.22180015,30.8749069 L8.13538787,30.903711 C8.05617661,30.9325151 8.05617661,30.9325151 8.16419196,30.9613192 C8.22180015,30.9757212 8.42342882,31.0333294 8.60345442,31.0909376 C9.16513427,31.2781642 11.3686476,31.81104 11.6350854,31.8326431 C11.7719049,31.8398441 11.9303274,31.8542461 11.9879356,31.8686482 C12.0455438,31.8830502 12.0887499,31.8686482 12.0887499,31.8470451 C12.0887499,31.7966379 11.6998946,31.5590042 11.2966373,31.3573755 C11.0301994,31.2277571 10.9221841,31.1485458 10.7781636,30.9757212 C10.6773493,30.8605048 10.605339,30.7524895 10.6197411,30.7380874 C10.6341431,30.7236854 10.8213697,30.7596905 11.0301994,30.8172987 C11.2462301,30.8749069 11.5414721,30.9397161 11.6854926,30.9541182 C12.0095387,30.9973243 12.6144247,30.9829222 12.6144247,30.9325151 C12.6144247,30.918113 12.5424144,30.8749069 12.4488011,30.8461028 C12.3551878,30.8172987 12.2759766,30.7812936 12.2687755,30.7668915 C12.2543735,30.7524895 12.0887499,30.6588762 11.8871213,30.5508608 C11.6134824,30.4068403 11.505467,30.3348301 11.4478588,30.2340158 C11.4046527,30.1620055 11.3686476,30.0899953 11.3686476,30.0827943 C11.3686476,30.0755933 11.7142967,30.0611912 12.1391571,30.0611912 C12.5640175,30.0611912 12.9816769,30.0467892 13.0680892,30.0323871 L13.2337127,30.010784 L13.0536871,29.9603769 C12.9528728,29.9315728 12.8448574,29.9099697 12.8088523,29.9099697 C12.7368421,29.9099697 12.3839919,29.6651349 12.3839919,29.6147277 C12.3839919,29.5931247 12.4416001,29.5427175 12.5208114,29.4995113 C12.6432288,29.4203001 12.6936359,29.4130991 13.1977076,29.4130991 L13.7377844,29.4130991 L13.7377844,29.2914018 C13.7377844,29.2121905 13.7305834,29.1041751 13.7233823,29.053768 C13.7089803,28.9745567 13.7305834,28.9507933 13.8962069,28.8593403 C14.0618305,28.772928 14.0834335,28.744124 14.0834335,28.6577117 C14.0834335,28.6001035 14.1122376,28.5064902 14.1410417,28.441681 L14.2058509,28.3264646 L14.6451134,28.3408666 C14.8899482,28.3552687 15.2067932,28.3768717 15.3508137,28.3984748 C15.5020352,28.4200779 15.6676588,28.4308794 15.7252669,28.4200779 C15.8188803,28.3984748 15.8260813,28.3941542 15.7756741,28.301261 C15.74687,28.2508538 15.7108649,28.1284364 15.6964629,28.0276221 C15.6748598,27.8980037 15.6460557,27.8475965 15.5956485,27.8259934 C15.5308393,27.8043903 15.5524424,27.7791868 15.7900762,27.6531688 C15.9340966,27.5667566 16.0781171,27.5019473 16.0997202,27.5019473 C16.1213233,27.5019473 16.1933335,27.4731433 16.2653437,27.4392984 C16.3805601,27.3888913 16.3949622,27.3888913 16.5965908,27.4753036 C16.7190082,27.5257107 16.8990338,27.5833189 17.0070492,27.604922 C17.1150645,27.6265251 17.259085,27.6769322 17.3382963,27.7201384 L17.4823168,27.7921486 L17.5039198,27.6913343 C17.5183219,27.6265251 17.5039198,27.5545148 17.4535127,27.4681025 L17.1798738,26.9856339 C17.0646574,26.7912063 16.9782451,26.6255828 16.9782451,26.6183817 C16.9782451,26.5895776 17.4319096,26.4527582 17.6263372,26.4311551 C17.8279659,26.402351 17.8207649,26.4167531 17.8063628,26.0639029 C17.7991618,25.8622742 17.8063628,25.8334701 17.8855741,25.7845032 C17.9791874,25.726895 18.8289082,25.4532561 19.1457533,25.3812458 L19.4914024,25.2991542 C19.7794433,25.2307444 20.0242782,25.2127419 20.0098761,25.263149 C20.0026751,25.2919531 19.9450669,25.3351593 19.8874587,25.3639634 C19.7218352,25.4503757 19.1817584,25.7996253 19.1817584,25.8248289 C19.1817584,25.839231 19.2105625,25.8968391 19.2465676,25.9616484 C19.4553973,26.3000965 19.5202065,26.8185702 19.4193922,27.3946521 C19.3905881,27.5674767 19.3473819,27.8591181 19.3257788,28.0499453 C19.2825727,28.4532026 19.1529543,29.0076814 18.9873307,29.5765623 C18.9153205,29.799794 18.8433103,30.0691123 18.8217072,30.1742473 C18.764099,30.4478862 18.4976611,31.0959783 18.3104345,31.4272254 C18.2096202,31.6036505 18.0007905,31.8664879 17.7703577,32.1149232 C17.3166932,32.6045928 16.9134359,32.8854327 16.0997202,33.281489 C15.7900762,33.4327105 15.4660301,33.5983341 15.3724168,33.6415402 C15.2788035,33.6919474 14.9691594,33.7855607 14.6811185,33.8575709 C14.3930775,33.9295812 13.910609,34.0519986 13.615367,34.1312099 C13.312924,34.2104211 13.010481,34.2752303 12.9456718,34.2752303 C12.8736615,34.2752303 12.5856206,34.3184365 12.3047806,34.3616426 C11.1526168,34.5560703 10.2380868,34.5128641 9.33075782,34.2176221 C8.49543906,33.9367822 6.92561587,33.5407259 6.87520871,33.5911331 C6.86800768,33.5983341 7.04803328,33.6487413 7.27846604,33.7063494 C7.5088988,33.7639576 7.95536227,33.8935761 8.2650063,34.0015914 C9.03551584,34.2608283 9.76281925,34.4624569 10.2380868,34.5416682 C10.8069677,34.6424825 12.0455438,34.6280805 12.6864349,34.5272662 C13.1545015,34.4480549 13.8385987,34.4264518 13.8385987,34.48406 C13.8385987,34.5488692 12.9960789,34.8225081 12.6288267,34.8729153 C12.4343991,34.9017194 12.095951,34.9593276 11.8871213,34.9953327 C11.3902506,35.088946 11.1382148,35.081745 10.5333288,34.9737296 C9.02831482,34.7072918 7.9337592,34.5200651 7.85454794,34.5200651 C7.79693975,34.5200651 7.76813566,34.5416682 7.7825377,34.5632713 C7.78973873,34.5848744 7.86174897,34.5992764 7.9337592,34.5992764 C8.0849807,34.5992764 9.61879877,34.8513122 10.1516745,34.9665286 C10.8429728,35.1105491 11.3038383,35.1465542 11.9951366,35.1033481 C12.729641,35.0601419 13.5361557,34.9521266 13.8962069,34.8513122 C14.2058509,34.7648999 14.7315257,34.5704723 15.7972772,34.1384109 C16.7262093,33.7567566 17.244683,33.5191228 17.5327239,33.3318962 C17.6407393,33.259886 17.7847598,33.1734737 17.849569,33.1374686 C18.166414,32.9430409 18.5624703,32.6333969 18.9081195,32.3237529 C19.4193922,31.8556863 20.4419375,30.7539297 20.6579682,30.4298836 C20.7515816,30.2858631 20.9172051,30.0914355 21.0180194,29.9906212 C21.1188338,29.8898068 21.2700553,29.7241833 21.3564676,29.6089669 C21.5436942,29.3569311 21.9109464,28.6944369 22.090972,28.2695765 C22.1701832,28.0895509 22.2493945,27.9239273 22.2637966,27.9023243 C22.2781986,27.8807212 22.3142037,27.7727058 22.3358068,27.6574895 C22.386214,27.3982526 22.4438221,27.3550465 22.4438221,27.5854792 C22.4438221,27.7583038 22.6166467,28.4712051 22.695858,28.6512307 C22.7318631,28.730442 22.7174611,28.7808492 22.6022447,29.032885 L22.4510232,29.3569311 C22.4366211,29.3929362 22.7246621,29.3641321 22.8614815,29.320926 C22.9262907,29.2993229 22.9478938,29.320926 22.9911,29.4577454 C23.0199041,29.5441577 23.0559092,29.7313843 23.0703112,29.8754048 L23.0847133,30.1346416 L22.9334918,30.2786621 C22.7822703,30.4154816 22.6310488,30.5451 22.400616,30.7107235 L22.2926006,30.7899348 L22.3718119,30.840342 C22.5230334,30.9411563 22.6627333,30.9483573 22.8902856,30.8691461 C23.2647389,30.7323266 23.2503368,30.7323266 23.2791409,30.9267543 C23.293543,31.0635737 23.2863419,31.1211819 23.2287337,31.2219962 C23.1927286,31.2868055 23.1567235,31.3732177 23.1567235,31.4164239 C23.1567235,31.45963 23.0199041,31.6108515 22.8038733,31.7980781 C22.6094457,31.9694625 22.4294201,32.1437273 22.3962954,32.1869334 C22.3674913,32.2301396 22.273878,32.3309539 22.1946667,32.4029641 L22.0506462,32.5397836 L22.3098831,32.5253815 C22.5331148,32.5109795 22.8571609,32.4317682 23.476449,32.2373406 C23.5628612,32.2085365 23.638472,32.1941345 23.6449529,32.2085365 C23.6895993,32.2805467 23.7025611,32.676603 23.659355,32.7558143 C23.603187,32.8638297 22.9342119,33.281489 22.6094457,33.4183085 C22.4798273,33.4687157 22.1629822,33.5911331 21.8965443,33.6919474 C21.6013024,33.7999628 21.4284778,33.886375 21.4428798,33.9151791 C21.4680834,33.9511843 22.8254764,33.9295812 23.7904136,33.871973 C24.2476786,33.8431689 24.3520935,33.8215658 24.8417631,33.6703443 C25.4826542,33.4687157 25.8283033,33.3318962 25.9147156,33.2454839 C25.9629625,33.2022778 25.9723238,33.1518706 25.9550413,33.0438553 C25.9046342,32.7486133 25.9118352,32.7414123 26.149469,32.655 C26.5095202,32.5253815 26.6031335,32.4965774 26.9991898,32.4245672 C27.5680707,32.3165519 28.273771,32.2733457 28.4609976,32.3381549 C28.6698273,32.4101652 28.9290642,32.5829897 29.0802857,32.7558143 C29.2243062,32.9142368 29.3899297,33.2310819 29.3899297,33.3534993 C29.3899297,33.3895044 29.3971307,33.4327105 29.4115328,33.4471126 C29.4259348,33.4615146 29.9228055,33.274288 29.9660116,33.2310819 C29.9948157,33.2022778 29.6995737,32.9214379 29.483543,32.7774174 C29.188301,32.5757887 28.3025751,32.1437273 27.9425239,32.0357119 C27.6400809,31.9420986 27.5392666,31.8772894 27.5392666,31.7908771 C27.5392666,31.7260679 27.7192922,31.7188669 27.8489106,31.7764751 C27.8993178,31.7980781 27.956926,31.8052792 27.964127,31.7980781 C28.0001321,31.762073 27.5608697,31.3732177 27.359241,31.2580014 C27.2584267,31.2003932 27.1216072,31.1139809 27.049597,31.0563727 C26.8911744,30.9267543 26.761556,30.861945 26.5023192,30.7539297 C26.3582987,30.6963215 26.2934895,30.6459143 26.2574843,30.559502 C26.2286803,30.5018939 26.1710721,30.4082805 26.1278659,30.3578734 C26.0558557,30.2714611 26.0486547,30.2210539 26.0558557,29.6809771 C26.0558557,29.2993229 26.0774588,29.0472871 26.1134639,28.9464727 C26.2718864,28.4568031 26.8695714,27.1390157 27.3088338,26.310898 C27.4960604,25.9580478 27.4960604,25.9004397 27.3448389,25.5907956 C27.2728287,25.4395741 27.2152205,25.2955537 27.2152205,25.2595485 C27.2152205,25.2235434 27.2728287,25.1299301 27.35204,25.0435178 C27.4312512,24.9571055 27.5392666,24.8130851 27.6040758,24.7266728 L27.7264932,24.5682503 L27.5896738,24.4242298 C27.5119027,24.3450185 27.4672563,24.2802093 27.4888594,24.2802093 C27.5032615,24.2802093 27.6832871,24.4386318 27.8849157,24.6402605 C28.0793434,24.8346881 28.26657,25.0003117 28.2881731,25.0003117 C28.3169772,25.0003117 28.3385802,25.0175941 28.3385802,25.0391972 C28.3385802,25.0608003 28.4970027,25.2552279 28.6986314,25.4770195 C29.0082754,25.8082666 29.1234918,25.9018799 29.4331358,26.0819055 C29.6347645,26.1971218 29.8291922,26.3051372 29.8579962,26.3123382 C29.8940014,26.3267403 30.0308208,26.2835341 30.1676403,26.2115239 C30.3044597,26.1467147 30.7365211,25.9810911 31.1325775,25.8514727 C31.8310768,25.6138389 31.8598809,25.5994369 32.0831126,25.3978082 C32.20553,25.2825918 32.4647669,25.0593601 32.6519935,24.9081386 C32.8320191,24.7569171 33.0048436,24.6128966 33.0264467,24.5912935 C33.12006,24.4976802 31.4926286,24.6921079 30.8013304,24.8577314 C30.1316351,25.0161539 30.0092177,24.9945509 30.3332638,24.7713191 C30.5276915,24.6417007 30.7149181,24.5912935 31.3774123,24.4760771 C31.7734686,24.4112679 32.4719679,24.1505909 32.7168027,23.9792065 C33.0120447,23.7703768 33.6745389,23.2519031 33.8473634,23.0934806 L34.020188,22.9350581 L34.2794249,22.9609817 C34.4234453,22.9681828 34.632275,22.9969869 34.7402904,23.0113889 C34.8483057,23.025791 34.941919,23.032992 34.9491201,23.032992 C34.9563211,23.025791 34.8267027,22.9105746 34.6610791,22.7809561 C34.5026566,22.6513377 34.2506208,22.442508 34.1138013,22.3150499 C33.9769819,22.1926325 33.7638316,22.027009 33.6457348,21.9405967 C33.429704,21.7965762 31.8670819,21.0116646 31.4926286,20.8676441 C31.2549949,20.7740308 31.1541805,20.7812318 30.4772843,20.9756595 C30.2036454,21.0548707 29.9228055,21.126881 29.8435942,21.141283 C29.7643829,21.1556851 29.5987594,21.1988912 29.469141,21.2420974 C29.2171051,21.3213086 29.1594969,21.3213086 28.1729567,21.141283 C27.8921168,21.0908759 27.5608697,21.0390285 27.4312512,21.0188656 C27.2008185,20.9900615 27.2080195,20.9886213 27.5191037,21.0030234 C28.7072726,21.0534305 29.2329474,21.0894357 29.2833545,21.1110387 C29.3193597,21.1254408 29.3553648,21.1254408 29.3697668,21.1038377 C29.3913699,21.0678326 29.2977566,20.6789773 29.2113443,20.4701476 C29.1465351,20.3189261 29.1537361,20.3045241 29.3769679,20.2109108 C29.4921842,20.1605036 29.6866119,20.0668903 29.8162303,20.0092821 L30.0466631,19.8940657 L30.4067143,19.99488 C30.7379614,20.0884934 30.8315747,20.0956944 31.530074,20.1028954 C32.2501764,20.1100964 32.2861815,20.1100964 32.2069702,20.0452872 C32.1277589,19.987679 31.4076566,19.670834 31.0908115,19.5628186 C31.0043992,19.5340145 30.7739665,19.4187981 30.5867399,19.3107828 C30.3995132,19.2027674 30.2122866,19.1091541 30.1762815,19.0947521 C30.010658,19.0371439 30.1690805,19.0083398 30.7523634,19.0083398 C31.1023332,19.0083398 31.3860535,18.9939377 31.3860535,18.9795357 C31.3860535,18.9651336 31.2924402,18.9147265 31.1772238,18.8643193 C31.0620074,18.8211132 30.8646994,18.7202988 30.7350809,18.6482886 C30.3534267,18.4322579 29.982574,18.2522323 29.9069632,18.2522323 C29.8277519,18.2522323 29.7960674,18.1874231 29.7960674,18.0145985 L29.7960674,17.8849801 L29.5152275,17.9137842 C29.2127845,17.9353872 28.5790944,18.0650057 28.2046412,18.180222 L27.9742084,18.2522323 L28.0822238,18.1492576 C28.2694504,17.969232 29.068764,17.659588 29.7096552,17.5227686 C30.1633197,17.4291553 31.7547459,17.3859491 32.1724053,17.4579594 C32.5900647,17.5299696 33.3605742,17.7532013 33.5045947,17.8396136 C33.5766049,17.8828198 33.7998367,18.0052372 34.0086664,18.1132525 C34.4407278,18.3220822 34.9880056,18.6821334 35.2544435,18.9197672 L35.4344691,19.0781897 L34.498336,19.0781897 L34.8367841,19.2870194 C35.0168097,19.4022358 35.2760465,19.5822614 35.412866,19.6830757 L35.8449274,20.0272846 C36.1113653,20.2361143 36.5506278,20.6523335 36.7594574,20.9043693 C36.9106789,21.0901558 36.9358825,21.1348021 36.9366026,21.2860236 C36.9366026,21.3796369 36.9582057,21.4876523 36.9870098,21.5236574 C37.051819,21.6100697 37.05902,21.7252861 37.0014118,21.7252861 C36.9798088,21.7252861 36.8717934,21.6460748 36.7709791,21.5510213 C36.6485617,21.4358049 36.4613351,21.3177081 36.2237013,21.2053721 C36.0292736,21.1117588 35.7844388,20.9965425 35.6908255,20.9461353 C35.5612071,20.8813261 35.5180009,20.874125 35.5180009,20.9101302 C35.5180009,20.9389343 35.8204439,21.4070008 36.1804951,21.9542786 C37.1094272,23.3440762 37.2462467,23.6321172 37.4046692,24.4746369 L37.4982825,24.9859096 C37.5054835,25.0435178 37.5486897,25.0795229 37.6134989,25.0917647 C37.7935245,25.1277698 37.959148,25.19978 37.9735501,25.2357852 C37.9879521,25.2789913 37.6711071,25.4302128 37.5774938,25.4302128 C37.4982825,25.4302128 37.4766794,25.5814343 37.4406743,26.6183817 C37.4190712,27.1368554 37.3902671,27.612123 37.3830661,27.6841332 L37.361463,27.8065507 L37.4550763,27.7129373 C37.5414886,27.6265251 37.5558907,27.6265251 37.649504,27.6769322 C37.7719214,27.7417414 37.7863234,27.8713599 37.7287153,28.2674162 C37.6783081,28.5842612 37.5846948,28.9227093 37.4478753,29.2179513 C37.3974682,29.3259667 37.3686641,29.412379 37.3830661,29.412379 C37.4406743,29.412379 37.6999112,28.9227093 37.8655347,28.4906479 C38.0959675,27.8879222 38.1535757,27.6481281 38.1823798,27.1224534 C38.1967818,26.8221707 38.2183849,26.7407991 38.25439,26.7552012 C38.3552043,26.7912063 38.3840084,27.014438 38.3624053,27.6481281 C38.3480033,27.9865762 38.3264002,28.3250244 38.2975961,28.3898336 C38.268792,28.4762459 38.268792,28.519452 38.2975961,28.5554571 C38.3696064,28.6418694 37.9159419,29.7508271 37.4982825,30.5141356 C37.1742364,31.0974185 37.0158139,31.3350523 36.6845668,31.7311086 C36.5333453,31.9039332 36.4181289,32.0551547 36.4181289,32.0695567 C36.4181289,32.0839588 36.4901392,32.0407526 36.5765514,31.9759434 C36.7133709,31.8823301 36.7925822,31.860727 37.0734221,31.831923 C37.8511327,31.7527117 37.7935245,31.7527117 37.7791224,31.8247219 C37.7719214,31.8700884 37.8007255,31.8967322 37.8943388,31.9255363 C38.1319726,31.9975465 38.0959675,32.0839588 37.649504,32.5304223 C37.3326589,32.8472673 37.2390456,32.9264786 37.1670354,32.9120765 C37.1022262,32.9048755 37.0878241,32.8832724 37.0950252,32.8112622 C37.1094272,32.7032468 37.1166282,32.6960458 36.9149996,32.9696847 C36.8285873,33.0849011 36.5549484,33.4233492 36.3101136,33.7113902 C35.9140573,34.1794567 35.8564491,34.2370649 35.7556347,34.2370649 C35.6476194,34.2370649 35.6404184,34.2298639 35.6476194,34.0930444 L35.6620214,33.9418229 L35.5972122,34.0282352 C35.5612071,34.0786424 35.4603928,34.2154618 35.3667794,34.3378792 C35.2731661,34.4581363 35.1363467,34.6403222 35.0571354,34.7483376 C34.8915119,34.9859714 34.4162443,35.490043 34.2146156,35.6412645 C34.1786105,35.6628676 34.1498064,35.6916717 34.1282034,35.7204758 L38.6396448,35.7204758 C38.6252427,35.6916717 38.697253,35.6268625 38.8772785,35.5260482 C39.014098,35.4540379 39.1797215,35.3532236 39.2517318,35.3100174 C39.323742,35.2596103 39.4173553,35.2236052 39.4605615,35.2236052 C39.5613758,35.2236052 39.6938746,35.3316205 39.6211443,35.3532236 C39.5923402,35.3604246 39.4123146,35.4468369 39.2106859,35.5476512 C38.9946552,35.6556666 38.8398332,35.7060738 38.7426194,35.7204758 L44.2802067,35.7204758 C44.359418,35.6916717 44.5055987,35.6340635 44.5610466,35.6196615 C44.7590748,35.5620533 45.0219122,35.475641 45.1392888,35.4324349 C45.2617062,35.384188 45.484938,35.3028164 45.6433605,35.2452082 C45.9458035,35.1371929 45.9602056,35.0896661 45.7081697,35.0579816 C45.6289585,35.0435796 45.5713503,35.0219765 45.5785513,35.0075744 C45.6289585,34.9283632 45.4273298,34.9089204 44.7432325,34.9384446 C44.3471762,34.9600477 43.6918831,34.9816508 43.2958267,34.9960528 C42.75575,35.0104549 42.4028998,35.04646 41.9060292,35.1256712 C41.5387769,35.1832794 41.1931278,35.2336866 41.1355196,35.2336866 C40.948293,35.2336866 41.0347053,35.1688774 41.2795401,35.1328723 C41.5243749,35.0968671 41.8052148,35.0104549 41.9852404,34.9240426 C42.0428486,34.8952385 42.172467,34.8736354 42.2732814,34.8736354 C42.5973274,34.8736354 44.0015271,34.76562 44.1599496,34.7296149 C44.2463619,34.7152129 44.4767946,34.6864088 44.6784233,34.6792078 C45.4417318,34.6360016 45.7369738,34.5927955 45.8161851,34.5351873 C45.9674066,34.4055689 46.2770506,34.0887238 46.3418598,33.9951105 C46.3778649,33.9375023 46.4642772,33.8798941 46.5866946,33.843889 C46.687509,33.8150849 46.8099264,33.7625174 46.8675345,33.7214716 C46.9179417,33.6854665 47.1339724,33.5702501 47.3428021,33.4622347 C47.8540748,33.2080386 48.2573321,32.9725651 48.3365434,32.8789518 C48.3941516,32.8213436 48.3941516,32.7975802 48.3581465,32.7349313 C48.3293424,32.6845242 48.3257419,32.6485191 48.3509455,32.5981119 C48.3725485,32.5621068 48.3869506,32.4972976 48.3869506,32.4612924 C48.3869506,32.0940402 49.431099,31.2083143 50.1872065,30.9325151 C50.3744331,30.8677059 50.331227,30.8317007 50.0647891,30.8317007 C49.9279697,30.8317007 49.6255267,30.8244997 49.3806919,30.8100977 C48.9990376,30.7884946 48.9378289,30.7740926 48.8838212,30.7092833 C48.826213,30.6372731 48.7758059,30.6300721 48.2501311,30.601268 C47.9368866,30.5868659 47.4580185,30.5652629 47.1915806,30.5508608 L46.701911,30.5220567 L46.8819366,30.411161 C47.1267714,30.2599395 47.2347868,30.2311354 47.8396728,30.1663262 C48.1277137,30.1375221 48.4697623,30.0899953 48.5993808,30.0655118 L48.8442156,30.0151047 L48.376149,29.9949418 C47.8504743,29.9733387 47.7424589,29.9301326 47.7424589,29.764509 C47.7424589,29.6132875 47.9440876,29.5052722 48.5777777,29.2964425 C49.1538596,29.1092159 49.4130965,29.0516077 49.4130965,29.1020148 C49.4130965,29.1164169 49.3482872,29.2028292 49.269076,29.2892415 C49.0818494,29.4908701 49.0818494,29.5916845 49.261875,29.6924988 C49.4274985,29.7861121 49.6219262,29.8293182 50.176405,29.9085295 C50.6372705,29.9733387 50.6444715,29.9733387 50.9541156,29.9589367 L51.1701463,29.9517356 L50.9469145,29.9013285 C50.8316981,29.8725244 50.6804766,29.8509213 50.6228685,29.8509213 C50.5436572,29.8509213 50.5004511,29.8221172 50.471647,29.757308 C50.4500439,29.7069008 50.3708326,29.6276896 50.2916214,29.5801628 C50.1043947,29.4577454 50.0539876,29.3929362 50.0755906,29.2921219 C50.1331988,29.0688901 50.2916214,28.9608748 51.0261258,28.6656328 C51.1845483,28.6008236 51.3141667,28.5288133 51.3141667,28.5144113 C51.3141667,28.4568031 51.7102231,28.2263703 51.991063,28.118355 C52.1350835,28.0607468 52.2719029,28.0031386 52.293506,27.9887366 C52.3367121,27.9527314 50.795693,27.9239273 50.6948787,27.9599325 C50.5940644,27.991617 49.4923077,28.0031386 49.4923077,27.9671335 C49.4923077,27.9167263 49.6795343,27.7943089 50.0179825,27.6229245 C50.3636316,27.4501 50.6444715,27.3780897 50.9901207,27.3708887 C51.0621309,27.365848 51.0621309,27.365848 50.9901207,27.3204815 C50.9253115,27.2772754 50.9325125,27.2700744 51.0621309,27.2556723 C51.2565586,27.2340693 51.2637596,27.154858 51.083734,27.0324406 C50.9037084,26.9064227 50.8100951,26.7371986 50.8605022,26.6219822 C50.8965074,26.53557 51.2349555,26.387949 51.393378,26.387949 C51.4509862,26.387949 51.5301975,26.3303408 51.6166097,26.2367275 C51.7678312,26.0711039 51.9406558,25.9774906 52.2214957,25.8838773 L52.4087224,25.8262691 L51.8470425,25.790264 C51.5373985,25.7686609 51.0189248,25.7542589 50.6876777,25.7542589 C50.1403999,25.7542589 50.0755906,25.7686609 49.8595599,25.8478722 C49.7299415,25.8982793 49.5571169,25.9774906 49.4851067,26.0350988 C49.3554883,26.1215111 49.3410862,26.1215111 49.2474729,26.0783049 C49.058086,25.9774906 48.7073961,25.487821 48.7073961,25.3149964 C48.7073961,25.2501872 48.8370146,25.2429862 48.9860757,25.3005944 C49.065287,25.3365995 49.0796891,25.3365995 49.0436839,25.3005944 C49.0148798,25.2789913 48.9932768,25.2213831 48.9932768,25.185378 C48.9932768,25.1493729 48.9644727,25.0845637 48.9356686,25.0485585 C48.8420553,24.9477442 48.8996635,24.8181258 49.065287,24.7533166 C49.2021065,24.6957084 49.3893331,24.6957084 50.0014201,24.7446753 C50.2030488,24.7590774 50.2102498,24.7590774 50.3470692,24.5502477 C50.4118785,24.4494334 50.4766877,24.4062272 50.6999194,24.327016 C50.8511409,24.2766088 51.1031767,24.2117996 51.2688003,24.1829955 C51.4488259,24.1541914 51.5568412,24.1253873 51.5352382,24.1037842 C51.484831,24.0533771 50.7935327,23.9957689 50.1958477,23.9957689 C49.6341679,23.9885678 49.5333536,23.9576034 49.7061781,23.8445474 C49.7637863,23.8085422 49.8213945,23.7581351 49.8357966,23.729331 C49.8559594,23.7005269 49.8919645,23.6832444 49.9150078,23.6832444 C49.9438119,23.6832444 50.2030488,23.6112342 50.4838887,23.5320229 C50.9159501,23.4168065 51.1175788,23.3808014 51.6576556,23.3303943 C52.0177068,23.3015902 52.39216,23.265585 52.4929743,23.251183 L52.6729999,23.2223789 L52.4713713,23.1935748 C52.3633559,23.1791728 52.1617272,23.1287656 52.0177068,23.0783584 C51.8808873,23.0351523 51.6360525,22.9775441 51.47763,22.963142 C51.2111921,22.941539 51.167986,22.9271369 50.9159501,22.7543124 C50.5947845,22.5382816 50.2923415,22.3798591 50.1987282,22.3798591 C50.162723,22.3798591 49.9898985,22.4302663 49.8098729,22.4878745 C49.3418063,22.646297 48.8593377,22.7399103 48.3192609,22.7831165 C47.8727975,22.8191216 47.8339119,22.8191216 47.6423647,22.7471113 C47.3831279,22.653498 47.2967156,22.5598847 47.3471227,22.4518694 C47.3687258,22.4050627 47.3975299,22.343854 47.4119319,22.3078489 C47.426334,22.2574417 47.4767412,22.2430397 47.6567668,22.2358386 L47.9736118,22.2214366 L48.2688538,22.1926325 C48.3768691,22.1854315 48.4848845,22.1710294 48.4992865,22.1710294 C48.5136886,22.1710294 48.4992865,22.1494264 48.4632814,22.1206223 C48.3984722,22.0846171 48.4272763,22.0702151 48.6937142,22.0198079 L49.0033582,21.9621997 L49.0033582,21.746169 C49.0033582,21.6237516 48.9601521,21.422123 48.9169459,21.2925045 C48.8449357,21.0836748 48.8377347,21.0332677 48.8809408,20.9252523 C48.938549,20.7596288 49.0105592,20.7236236 49.3274043,20.7236236 L49.5866411,20.7236236 L49.4411805,20.6501732 C49.1855441,20.5349568 49.2107477,20.4773486 49.529753,20.4557456 C49.7349822,20.4413435 49.7637863,20.4341425 49.6881756,20.4053384 C49.5513561,20.3549312 49.2467528,20.3714936 49.022801,20.4413435 L48.8211723,20.5061527 L48.3387037,20.3873358 C48.0722658,20.3225266 47.7050136,20.2505164 47.517787,20.2217123 C47.3305604,20.1929082 47.1433338,20.1468216 47.0929266,20.1136969 C47.0425194,20.0848928 46.9561071,20.0560887 46.898499,20.0560887 C46.8408908,20.0560887 46.7256744,20.0344857 46.6536641,20.0056816 C46.4736385,19.9408724 45.9551648,19.8688621 45.703129,19.8739028 C45.5951136,19.8775034 45.4798973,19.8667018 45.4510932,19.8479792 C45.386284,19.811974 45.9407628,19.7255618 46.0703812,19.7543658 C46.1135874,19.7687679 46.2504068,19.7831699 46.3728242,19.790371 C46.4880406,19.797572 46.7472775,19.8191751 46.9489061,19.8407781 C47.200942,19.8695822 47.4457768,19.8695822 47.7626218,19.8407781 C48.0074566,19.8191751 48.3315027,19.811974 48.4683221,19.8242158 C48.6051416,19.8350173 48.7491621,19.8278163 48.7707651,19.8098137 C48.8067703,19.7882107 48.7851672,19.7774091 48.6915539,19.776689 C48.3603068,19.7730885 47.8994413,19.5721799 47.8418331,19.4072765 C47.8058279,19.3136632 47.8418331,19.2848591 48.0074566,19.263256 C48.2954976,19.2243705 48.2450904,19.1696427 47.9426474,19.1912458 L47.6546064,19.2092483 L47.4025706,19.0508258 C46.7184734,18.6043623 46.2504068,18.1074917 46.4520355,18.0354815 C46.4880406,18.0210794 46.4880406,18.0066774 46.4520355,17.9634712 C46.4088293,17.9130641 46.4376334,17.88426 46.6608652,17.7762446 C46.9561071,17.6250231 46.9705092,17.5530129 46.6824682,17.589018 C46.4808396,17.6178221 46.4736385,17.6178221 45.5663095,17.596219 L44.9614236,17.581817 L44.6877846,17.3369822 C44.1549089,16.8617146 44.0468935,16.6528849 44.1117027,16.2208235 C44.1405068,16.0624009 44.1693109,16.0119938 44.2989294,15.8967774 C44.4213468,15.788762 44.493357,15.7599579 44.5869703,15.7599579 C44.8318051,15.7527569 45.4726962,15.8895764 45.7535362,16.0047928 C46.0775822,16.1344112 46.0991853,16.1344112 46.0343761,16.0624009 C45.9479638,15.9543856 45.717531,15.8679733 45.2134594,15.7383549 C44.0396925,15.4431129 42.9595389,15.2630873 42.0306069,15.2126801 C41.6201485,15.1910771 41.4185198,15.162273 41.3393086,15.1262679 C41.2384942,15.0758607 40.9432523,14.9966494 40.3239642,14.867031 C40.2015468,14.8382269 40.0719284,14.8022218 40.0359233,14.7806187 C39.9711141,14.7446136 39.9711141,14.7374126 40.0719284,14.7086085 C40.251954,14.6582013 42.2250345,14.6726034 42.369055,14.7230105 C42.4698693,14.7518146 42.5490806,14.7590156 42.7507092,14.7230105 C42.9451369,14.6870054 43.1035594,14.6870054 43.3988014,14.7158095 C43.6148321,14.7374126 43.7948577,14.7518146 43.8020587,14.7446136 C43.8020587,14.7446136 43.4348065,14.6005931 42.981142,14.4349696 C42.5274775,14.262145 42.0954161,14.0965215 42.0234058,14.0605163 C41.8721843,13.9813051 41.0224635,13.7796764 40.3887734,13.66446 C39.8270936,13.5564447 39.6182639,13.4268262 39.8919028,13.340414 C40.1079335,13.2684037 40.1223356,13.2251976 39.9207069,13.2323986 C39.6686711,13.2395996 39.2942178,13.1315843 39.2654137,13.045172 C39.2294086,12.9443576 39.2654137,12.9155535 39.4958465,12.8435433 C39.6110629,12.8075382 39.7766864,12.74993 39.8630987,12.7139249 C40.0575263,12.6275126 40.7632267,12.4690901 40.9432523,12.4618891 C41.0656697,12.4618891 41.0656697,12.454688 40.9864584,12.4258839 C40.85684,12.3754768 39.7550833,12.4042809 39.1718004,12.4762911 C37.7459977,12.6491157 37.1987199,12.742729 36.3634011,12.9659607 C35.4776752,13.2035945 35.3336547,13.2251976 35.3336547,13.1459863 C35.3336547,13.1243832 35.3480568,13.1099812 35.3696599,13.1099812 C35.3912629,13.1099812 35.4704742,13.066775 35.5424844,13.0091669 C35.7513141,12.8507443 36.0753602,12.7139249 36.5434267,12.5843065 C36.7810605,12.5194972 37.0619004,12.433085 37.1627148,12.3898788 C37.2635291,12.3466727 37.5083639,12.2818635 37.7027916,12.2386573 C37.8972192,12.1954512 38.134853,12.130642 38.2356673,12.0946368 C38.3292806,12.0586317 38.4877032,12.0082246 38.5885175,11.9794205 C38.6821308,11.9578174 38.7685431,11.9218123 38.7757441,11.9074102 C38.8189503,11.842601 38.5669144,11.828199 37.4363537,11.842601 C36.5002206,11.849802 36.2625868,11.849802 36.2769889,11.8137969 C36.312994,11.7057816 35.2976496,11.8065959 34.8511861,11.9434153 C34.7287687,11.9794205 34.5775472,12.0154256 34.519939,12.0154256 C34.4119237,12.0154256 34.3471145,11.9650184 34.4191247,11.9218123 C34.4479288,11.9074102 34.4407278,11.8858071 34.4119237,11.8642041 C34.3759186,11.842601 34.4047227,11.7921938 34.5415421,11.6697764 C34.6423565,11.5833641 34.7719749,11.4897508 34.8295831,11.4681478 C34.8871913,11.4465447 35.1464281,11.3313283 35.405665,11.2161119 C35.9529428,10.9640761 36.1977776,10.8920659 36.608236,10.8632618 C37.1051066,10.8272566 36.9034779,10.7840505 36.2553858,10.7840505 C35.412866,10.7840505 35.0240107,10.8560607 34.210295,11.1513027 C33.7134244,11.3313283 33.0581312,11.4753488 32.5612606,11.5041529 C32.2516166,11.525756 32.1796063,11.532957 32.1940084,11.5833641 C32.2300135,11.7201836 32.2084104,11.7489877 32.0283848,11.842601 C31.8699623,11.9218123 31.769148,11.9362143 31.4451019,11.9578174 C31.2290712,11.9722194 30.861819,12.0010235 30.6241852,12.0226266 L30.1921237,12.0658327 L29.8608767,12.2890645 C29.6808511,12.4042809 29.2271866,12.7283269 28.8599343,12.9947648 C27.9670074,13.642857 27.5925542,13.8948928 27.5277449,13.8948928 C27.4485337,13.8948928 27.6069562,13.7364703 28.0822238,13.340414 C28.6006975,12.9011515 29.1911814,12.454688 29.5800367,12.2098532 C29.7528613,12.0946368 30.0048971,11.9218123 30.1417166,11.8137969 C30.278536,11.7057816 30.4369586,11.6121682 30.4873657,11.5977662 C30.5377729,11.5833641 30.6313862,11.540158 30.7033964,11.4969519 C30.7682057,11.4537457 30.9050251,11.3889365 31.0058394,11.3529314 L31.1930661,11.2881222 L31.0418446,11.3025242 C30.9626333,11.3097252 30.7826077,11.3673334 30.6457882,11.4249416 C30.5089688,11.4825498 30.1633197,11.6121682 29.8680777,11.7201836 C29.0327589,12.0082246 28.8239292,12.1018379 28.3990688,12.3538737 C27.9238013,12.6347136 27.7077705,12.7931361 27.4485337,13.0235689 C27.2253019,13.2251976 27.1532917,13.2395996 27.1532917,13.0883781 C27.1532917,12.8795484 27.4845388,12.5627034 27.9454043,12.3250696 C28.0462187,12.2746624 28.0966258,12.2242553 28.0966258,12.1738481 C28.0966258,12.0370286 28.1686361,11.9650184 28.5286873,11.6841785 C28.8743364,11.4177406 28.9679497,11.3313283 28.8167282,11.4105396 C28.7807231,11.4321426 28.7159139,11.4465447 28.6799088,11.4465447 C28.6511047,11.4465447 28.3918678,11.5977662 28.1110279,11.7849928 C27.8301879,11.9722194 27.4629357,12.1954512 27.2973122,12.2890645 C27.1316886,12.3826778 26.7068282,12.6419146 26.3611791,12.8723474 C25.9939269,13.1171822 25.720288,13.2756047 25.6986849,13.2612027 C25.6698808,13.2323986 25.5690665,13.2828058 25.108201,13.5564447 C25.0289897,13.6068518 24.9137733,13.7148672 24.8633661,13.8012795 C24.812959,13.8876918 24.6905416,14.0461143 24.5969283,14.1541296 C24.503315,14.262145 24.3736965,14.4349696 24.3160883,14.5357839 C24.200872,14.7302115 24.0928566,14.7806187 24.0424494,14.6870054 C24.0208464,14.6510003 23.9848412,14.6293972 23.9560371,14.6293972 C23.8840269,14.6293972 23.8624238,14.571789 23.90563,14.4637737 C23.9344341,14.3917634 23.927233,14.3701604 23.8912279,14.3701604 C23.7976146,14.3701604 23.8768259,14.1685317 24.0712535,13.9308979 C24.1792689,13.8012795 24.2728822,13.642857 24.2872842,13.5780477 C24.3016863,13.5132385 24.4097016,13.347615 24.532119,13.2035945 C24.7625518,12.9227546 24.7553508,12.9227546 24.4457068,13.1531873 C24.1072586,13.4052232 24.0136453,13.4412283 24.0136453,13.3116099 C24.0136453,13.1747904 25.1946132,12.0298276 25.5906695,11.7921938 C25.6626798,11.7489877 25.6914839,11.7417867 25.7130869,11.7849928 C25.73469,11.8209979 25.7490921,11.8209979 25.7922982,11.7705908 C25.8211023,11.7345856 26.1019422,11.540158 26.4259883,11.3313283 C27.0812815,10.8992669 27.0380753,10.928071 27.0092712,10.8992669 C26.9804671,10.8704628 26.7140293,11.0144833 26.1667514,11.3457304 C25.9075146,11.5041529 25.6842829,11.6265703 25.6626798,11.6049672 C25.6266747,11.5689621 25.115402,11.842601 24.3952996,12.2818635 C23.7328054,12.6851208 23.617589,12.7643321 23.2647389,13.045172 C22.4294201,13.7292692 22.0405648,14.1469286 21.802931,14.6221962 C21.7165187,14.7950208 21.6373075,14.9390412 21.6229054,14.9390412 C21.6085034,14.9390412 21.4716839,15.0398556 21.3276635,15.1550719 C20.6723703,15.6807467 20.5211488,15.77436 20.5571539,15.6159375 C20.5643549,15.5655303 20.6579682,15.3494996 20.7659836,15.1334689 C21.1116327,14.4133665 22.2205904,12.9659607 22.7174611,12.5843065 C22.9334918,12.4186829 22.9478938,12.3970798 22.8830846,12.3394716 C22.8614815,12.3178686 22.8542805,12.2602604 22.8686826,12.2098532 C22.8974866,12.0874358 23.5671819,11.4897508 23.8840269,11.3097252 C24.0208464,11.230514 24.200872,11.1224986 24.2728822,11.0792925 C24.3448924,11.0288853 24.4889129,10.9640761 24.5825262,10.928071 C24.6761395,10.8848648 24.9425774,10.7768495 25.1802112,10.6688341 C25.410644,10.5680198 25.6194736,10.4816075 25.6338757,10.4816075 C25.6842829,10.4816075 26.8940549,9.91272663 27.1748948,9.76150513 C27.3405183,9.66789182 27.7221726,9.53107237 28.2766514,9.3582478 C29.0975681,9.10621196 29.6448459,8.89738227 30.0553043,8.66694951 C30.7033964,8.30689832 31.2794783,7.83883178 31.3370865,7.62280106 C31.3514886,7.57239389 31.4090968,7.4211724 31.473906,7.27715192 C31.6179265,6.9675079 31.6611326,6.84509049 31.6035244,6.88109561 L31.684896,6.97398882 Z M23.7833926,9.34312565 L23.7380261,9.47274407 C23.5904052,9.88104212 23.0251248,10.2288516 21.8549584,10.6335491 C21.8290347,10.6429104 21.8189533,10.6666738 21.831195,10.6868367 C21.8635997,10.7394042 22.2006076,10.6918774 22.3611904,10.6112259 C22.5268139,10.5248137 23.2569978,10.2511747 23.3117255,10.2511747 C23.4233414,10.2511747 24.2564999,9.48786622 24.2305762,9.40865496 C24.2161741,9.37264984 24.1369629,9.3582478 24.0001434,9.35104677 L23.7769117,9.33664472 L23.7833926,9.34312565 Z M34.6410963,11.8130768 C34.6677401,11.8166773 34.6526179,11.8390005 34.6122922,11.8822066 C34.5762871,11.9225324 34.4553099,11.9815808 34.3444141,12.0132653 C34.2335183,12.0449498 34.0362103,12.1270414 33.9065918,12.1976115 C33.7769734,12.2674614 33.6185509,12.356034 33.5537417,12.3956396 C33.3953192,12.4914132 33.4068408,12.4338051 33.5861463,12.2300161 C33.7517698,12.0427895 33.9605995,11.9182118 34.1190221,11.9174917 C34.1766302,11.9174917 34.3134497,11.8937283 34.421465,11.8642041 C34.5510835,11.828199 34.6230937,11.8065959 34.6518978,11.8137969 L34.6410963,11.8130768 Z M27.5106425,13.5240401 C27.5358461,13.516839 27.5538487,13.5189993 27.5653703,13.5298009 C27.577612,13.5420426 27.5106425,13.629175 27.4163091,13.7220682 C27.3226958,13.8156815 27.2002784,13.9380989 27.1448305,14.0029081 C27.0209729,14.1469286 26.8467081,14.1973358 26.8467081,14.0965215 C26.8467081,13.959702 27.3327772,13.5564447 27.5106425,13.5204395 L27.5106425,13.5240401 Z M31.9824783,13.8912923 C32.030005,13.9380989 31.7434043,14.0958013 31.4243989,14.198776 C31.2587754,14.2563842 31.15076,14.3139924 30.4738638,14.7172497 C30.2074259,14.8756722 29.9841942,15.0196927 29.9697921,15.0412958 C29.9553901,15.0628988 29.8689778,15.113306 29.7753645,15.1493111 C29.6817512,15.1925173 29.5305297,15.3005326 29.4369164,15.3869449 C29.3433031,15.4733572 29.2352877,15.5669705 29.1920816,15.5957746 C29.1488754,15.6245787 28.9616488,15.7902022 28.7816232,15.9630268 C28.5007833,16.2294647 28.4359741,16.2798719 28.3351597,16.2798719 C28.2703505,16.2798719 28.2055413,16.2726708 28.1911393,16.2582688 C28.1767372,16.2438667 28.0327167,16.2222637 27.8670932,16.2150627 L27.5646502,16.1934596 L28.0543198,15.7758002 L28.5439894,15.3509398 L29.2640918,15.0340947 C29.6601481,14.8612702 30.2650341,14.5948323 30.6106833,14.4364098 C31.1795641,14.1771729 31.9212696,13.889132 31.9572747,13.9179361 L31.9824783,13.8912923 Z M26.6825248,13.9654628 L26.6947665,14.0677174 C26.7019675,14.1181245 26.7019675,14.1901348 26.6875655,14.2189389 C26.6803645,14.247743 26.6515604,14.269346 26.6299573,14.269346 C26.5579471,14.269346 26.550746,14.1613307 26.6227563,14.0605163 L26.6875655,13.959702 L26.6825248,13.9654628 Z M23.898609,14.4623335 C23.9115708,14.4745752 23.8870873,14.5415447 23.8453214,14.6092343 C23.8021153,14.6812446 23.7675503,14.7892599 23.7675503,14.8612702 C23.7675503,14.9332804 23.7459473,15.0196927 23.7185834,15.0556978 C23.6912195,15.098904 23.6559345,15.1997183 23.6415324,15.2933316 C23.6127283,15.4733572 23.4543058,15.6533828 23.1590638,15.8478104 C22.9574352,15.9774289 22.914229,15.9774289 22.8854249,15.8622125 C22.8638219,15.7613982 22.9646362,15.5741715 23.195069,15.2861306 C23.2814812,15.1853162 23.3750945,15.0628988 23.4038986,15.0052907 C23.5911253,14.7028477 23.8575631,14.4292088 23.9079703,14.4868169 L23.898609,14.4623335 Z M20.7848863,14.4997788 C20.8208914,14.5357839 20.5486927,15.1118658 20.3672269,15.3783037 C19.9236438,16.0335969 19.8055471,16.3504419 19.6932111,17.1785596 C19.6320024,17.6250231 19.6413637,17.7762446 19.7313765,17.7762446 C19.7673816,17.7762446 19.7889847,17.7906467 19.7889847,17.8194508 C19.7889847,17.898662 19.6305622,18.1002907 19.5081448,18.1650999 C19.4073304,18.2155071 19.3929284,18.2371101 19.4145315,18.3307234 C19.4361345,18.4171357 19.4289335,18.4315378 19.3641243,18.4099347 C19.3137171,18.3883316 19.2489079,18.4387388 19.0832844,18.6475685 C18.968068,18.791589 18.8528516,18.9356094 18.8240475,18.9644135 C18.7880424,19.0076197 18.7808414,18.9644135 18.7952434,18.6907746 C18.8168465,18.3235224 18.9176608,17.9778733 19.1264905,17.5674149 C19.3569233,17.1137504 19.5513509,16.6672869 19.6593663,16.372045 C19.7169745,16.2136224 19.882598,15.8823754 20.0266185,15.6447416 C20.3002574,15.1910771 20.782726,14.4565726 20.8043291,14.4781757 L20.7848863,14.4997788 Z M42.8992304,15.3206955 C42.9928437,15.3062934 43.17791,15.3783037 43.17791,15.464716 C43.17791,15.5007211 43.17791,15.5295252 43.170709,15.5295252 C43.0842967,15.5079221 42.8538639,15.3927057 42.8538639,15.3639016 C42.8538639,15.3350975 42.875467,15.3206955 42.9114721,15.3134945 L42.8992304,15.3206955 Z M43.6322946,15.3927057 C43.7943176,15.3999068 43.9923458,15.4215098 44.1507683,15.4503139 C44.3307939,15.479118 44.3624784,15.5295252 44.2227785,15.5655303 C44.1709312,15.5799324 44.064356,15.6303395 43.9880252,15.6879477 C43.8209614,15.8031641 43.7431904,15.8031641 43.571806,15.7023498 C43.4407474,15.6231385 43.3024877,15.4431129 43.3356124,15.3855047 C43.3442536,15.3711027 43.4702715,15.3711027 43.6322946,15.3855047 L43.6322946,15.3927057 Z M32.3007635,15.9399835 C33.0395886,15.9471846 34.252241,16.091205 35.0126691,16.2856327 C35.3223131,16.3648439 35.6355577,16.4296532 35.7097282,16.4296532 L35.8451075,16.4296532 L35.6816442,16.4656583 C35.5952319,16.4800603 35.3647992,16.4872614 35.1775725,16.4800603 C34.7455111,16.4584573 33.5141361,16.5088644 32.6644152,16.5808747 C31.7282822,16.6600859 31.1305972,16.7464982 30.3024794,16.9409259 C29.8992221,17.0273381 29.553573,17.0993484 29.5319699,17.0993484 C29.5103668,17.0993484 29.5895781,16.998534 29.7047945,16.8905187 C30.0072375,16.6024777 30.9649736,16.1056071 31.3394269,16.0479989 C31.4762463,16.0263958 31.670674,15.9831897 31.7714883,15.9543856 C31.8795037,15.9183805 32.0739313,15.9111794 32.3187661,15.9111794 L32.3007635,15.9399835 Z M36.2274818,16.6096788 C36.4723166,16.6096788 36.6163371,16.6456839 36.6163371,16.7176941 C36.6163371,16.7536992 36.594734,16.7536992 36.2274818,16.7104931 C36.0834613,16.68889 35.9610439,16.6600859 35.9610439,16.6384829 C35.9610439,16.6168798 36.0762603,16.6024777 36.2130798,16.6024777 L36.2274818,16.6096788 Z M27.6006553,17.7186364 C27.6726655,17.7258374 27.6798666,17.7618426 27.6150574,17.8122497 C27.5790522,17.8410538 27.5214441,17.8770589 27.49264,17.88426 C27.4278307,17.905863 27.2406041,17.8626569 27.1469908,17.8122497 C27.0821816,17.7762446 27.0893826,17.7690436 27.1829959,17.7546415 C27.3774236,17.7114354 27.514243,17.6970333 27.5934543,17.7114354 L27.6006553,17.7186364 Z M26.0524352,18.4459398 C26.1748526,18.4171357 26.2612649,18.503548 26.1892546,18.5827593 C26.1172444,18.6619705 25.8292035,18.6187644 25.8292035,18.5251511 C25.8292035,18.489146 25.8652086,18.4747439 26.0524352,18.4315378 L26.0524352,18.4459398 Z M25.6563789,18.8563982 C25.6707809,18.8563982 25.677982,18.8708002 25.677982,18.8924033 C25.677982,18.9140064 25.5843686,19.0292228 25.4619512,19.1588412 C25.3179308,19.3172637 25.2171164,19.4612842 25.1595082,19.6053047 C25.1163021,19.720521 25.0010857,19.9437528 24.9074724,20.0949743 C24.7058437,20.4334224 24.6482356,20.5774429 24.5978284,20.8798859 C24.5762253,21.0095043 24.5546222,21.1463237 24.5402202,21.1967309 C24.5114161,21.2759422 24.5186171,21.2759422 24.777854,21.2759422 C24.9218745,21.2759422 25.1091011,21.2615401 25.1883123,21.2399371 C25.2675236,21.218334 25.5411625,21.1895299 25.7931983,21.1823289 C26.2756669,21.1535248 26.3476772,21.1751278 26.1604506,21.2975452 C26.0452342,21.3695555 25.7715953,21.9240343 25.677982,22.2840855 C25.5987707,22.5793275 25.5267605,23.3210329 25.5267605,23.9187179 C25.5267605,24.3651814 25.5627656,24.3219752 25.087498,24.3867845 C24.9146734,24.4083875 24.5474212,24.4659957 24.2737823,24.5092019 C23.9929424,24.552408 23.6184892,24.6100162 23.4384636,24.6316193 C23.258438,24.6532223 22.7759694,24.7468356 22.35831,24.84765 C21.6166045,25.0204745 21.5013882,25.0420776 21.5373933,25.0060725 C21.5733984,24.9700674 23.1576236,24.545207 23.7769117,24.4155885 C24.1225608,24.3363773 24.5042151,24.235563 24.6194315,24.1923568 C24.8066581,24.1131455 24.8282612,24.0915425 24.8426632,23.9979292 C24.8426632,23.940321 24.8714673,23.7386923 24.8930704,23.5514657 C24.9146734,23.3210329 24.9146734,23.1986155 24.8930704,23.1626104 C24.8426632,23.0978012 24.9434775,22.3560957 25.0370908,22.0896579 C25.1235031,21.837622 25.2459205,21.6287923 25.3683379,21.513576 C25.4187451,21.4631688 25.4619512,21.4127616 25.4619512,21.3911586 C25.4619512,21.3407514 25.0442919,21.3839575 24.3097874,21.4991739 C23.9857414,21.5495811 23.7121025,21.5783852 23.6977004,21.5639831 C23.6688963,21.535179 23.7409066,21.3407514 24.0073444,20.6998603 C24.1441639,20.3686132 24.2377772,20.2029896 24.4322048,19.9509538 C24.5690243,19.7781292 24.7418489,19.5909026 24.8138591,19.5476965 C24.8786683,19.4972893 25.073096,19.3172637 25.2387195,19.1444391 C25.4403482,18.9284084 25.5627656,18.8275941 25.6131727,18.8275941 L25.6563789,18.8563982 Z M48.1163721,19.2524545 L48.2387895,19.2740576 C48.3612069,19.2956606 48.4188151,19.3388668 48.4188151,19.4252791 C48.4188151,19.4900883 48.375609,19.4756862 48.2387895,19.3604698 L48.1091711,19.2452535 L48.1163721,19.2524545 Z M21.5301923,19.4468821 C21.5517953,19.4540832 21.465383,19.5765006 21.3285636,19.71332 C21.155739,19.8933456 21.0621257,20.015763 21.0189196,20.1453814 C20.9901155,20.2389947 20.9181052,20.3758142 20.860497,20.4406234 C20.8028889,20.5054326 20.7596827,20.5702418 20.7596827,20.5918449 C20.7596827,20.606247 20.6732704,20.7214633 20.5724561,20.8510818 C20.4716418,20.9807002 20.3708274,21.1175197 20.3564254,21.1607258 C20.3204203,21.2471381 19.7299363,21.5855862 19.3194779,21.7512097 C19.1538544,21.816019 18.8658135,21.9168333 18.6713858,21.9744415 C18.4769582,22.0320497 18.2969326,22.0824568 18.2825305,22.0824568 C18.2249223,22.0824568 18.2825305,21.9312353 18.3977469,21.7656118 C18.4553551,21.6791995 18.5129633,21.5639831 18.5273653,21.5063749 C18.5345664,21.4487667 18.6065766,21.3407514 18.6785868,21.2687412 C18.8514114,21.0815145 19.4490964,20.6638552 19.6003179,20.620649 C19.7371373,20.5846439 20.6300643,20.1093763 20.853296,19.9437528 C20.9397083,19.8789436 21.0837288,19.7565262 21.1701411,19.6629128 C21.3357646,19.4828872 21.44378,19.410877 21.5157902,19.4324801 L21.5301923,19.4468821 Z M46.1792967,19.5837016 C46.2441059,19.5837016 46.280111,19.5981036 46.265709,19.6197067 C46.2513069,19.6341087 46.2008998,19.6557118 46.1504926,19.6557118 C46.1000854,19.6557118 46.0568793,19.6341087 46.0568793,19.6197067 C46.0568793,19.5981036 46.1072865,19.5837016 46.1648947,19.5837016 L46.1792967,19.5837016 Z M29.7969676,22.5649254 C29.8185706,22.5505234 29.9121839,22.5505234 30.0778075,22.5721265 C30.2866372,22.5937295 30.3730495,22.6369357 30.3370444,22.6945439 C30.3010392,22.744951 30.229029,22.73775 29.9553901,22.6513377 C29.8257717,22.6081316 29.7681635,22.5721265 29.7897665,22.5577244 L29.7969676,22.5649254 Z M28.5583915,22.6369357 C28.5655925,22.6297346 28.731216,22.6801418 28.9256437,22.744951 C29.1200713,22.8097602 29.4009113,22.9105746 29.5449317,22.9609817 C29.6889522,23.0113889 29.8185706,23.0689971 29.8257717,23.0906002 C29.8545758,23.1914145 29.5593338,23.1122032 29.0624631,22.8817705 C28.7672212,22.7521521 28.5367884,22.6369357 28.5439894,22.6297346 L28.5583915,22.6369357 Z M50.197468,23.025791 C50.2694782,23.025791 50.3414885,23.040193 50.3486895,23.0617961 C50.3774936,23.1122032 50.1830659,23.1122032 50.1110557,23.0617961 C50.0678495,23.040193 50.0894526,23.032992 50.190267,23.032992 L50.197468,23.025791 Z M48.7860673,23.032992 C49.0597062,23.025791 49.1173144,23.032992 49.0092991,23.0545951 C48.9300878,23.0689971 48.7428612,23.0978012 48.5916397,23.1122032 C48.3612069,23.1338063 48.3252018,23.1266053 48.3684079,23.0906002 C48.397212,23.0545951 48.5268305,23.040193 48.7788663,23.032992 L48.7860673,23.032992 Z M49.1533195,23.4146462 L49.0525052,23.5010585 C48.9156857,23.6090739 48.7860673,23.9187179 48.8436755,23.9835271 C48.8724796,24.0195322 48.8580776,24.0339343 48.7212581,24.0339343 C48.6348458,24.0339343 48.5268305,24.0411353 48.4908253,24.0483363 C48.2819956,24.0843415 47.9291455,23.9187179 47.9291455,23.7746974 C47.9291455,23.5874708 48.2891967,23.4506514 48.8724796,23.4218473 L49.1389175,23.4074452 L49.1533195,23.4146462 Z M22.5167325,25.0492786 C22.5743407,25.0492786 22.5959438,25.776582 22.5599387,26.4822824 C22.5167325,27.267194 22.4663253,27.5192298 22.1998875,28.181724 C22.0414649,28.5777803 21.7246199,29.2402745 21.7174189,29.1898673 C21.7102178,29.1394602 21.8326353,28.779409 22.0918721,28.1169148 C22.3295059,27.4760237 22.4231192,26.971952 22.3871141,26.4390762 C22.3151038,25.4237319 22.3151038,25.3805257 22.4015161,25.2077012 C22.4447223,25.1140879 22.4951294,25.0420776 22.5095315,25.0420776 L22.5167325,25.0492786 Z M25.6635799,25.1068868 L25.6635799,25.4237319 C25.6635799,25.7909841 25.6275748,25.8557933 25.4115441,25.8557933 C25.3323328,25.8557933 25.2099154,25.8845974 25.1307042,25.9134015 C25.0514929,25.9494066 24.9434775,26.0070148 24.8858693,26.0502209 L24.777854,26.1222312 L24.8426632,26.0070148 C24.8786683,25.9422056 25.080297,25.7117728 25.2819257,25.5029431 L25.6491779,25.1140879 L25.6635799,25.1068868 Z M39.2519118,26.1006281 C39.3671282,26.1006281 39.4247364,26.1510353 39.4031333,26.2158445 C39.3887313,26.2446486 39.3671282,26.2734527 39.3527261,26.2734527 C39.1871026,26.2518496 39.0934893,26.0934271 39.2447108,26.0934271 L39.2519118,26.1006281 Z M49.5133707,26.6407049 C49.7438035,26.6335039 49.9598342,26.6335039 49.9886383,26.6551069 C50.0606485,26.6983131 49.9958393,26.7415192 49.7798086,26.7631223 C49.6645922,26.7775244 49.5133707,26.8135295 49.4485615,26.8423336 C49.3333451,26.8855397 49.3261441,26.8927407 49.3837523,26.9575499 C49.4197574,26.9935551 49.4413605,27.0439622 49.4413605,27.0655653 C49.4413605,27.1303745 49.2613349,27.1087714 49.0237011,27.0151581 C48.9012837,26.964751 48.7860673,26.9287459 48.7644642,26.9287459 C48.6060417,26.9287459 48.7212581,26.7271172 48.8940827,26.6911121 C49.0092991,26.662308 49.2613349,26.6479059 49.4917676,26.6407049 L49.5133707,26.6407049 Z M25.4619512,27.5264308 L25.4835543,27.7424615 C25.5195594,28.0809097 25.5195594,28.4481619 25.4763533,28.4481619 C25.4547502,28.4481619 25.4259461,28.4193578 25.4043431,28.3905537 C25.38274,28.3473475 25.3611369,28.3401465 25.3467349,28.3689506 C25.3323328,28.3905537 25.2675236,28.4049557 25.2027144,28.4049557 C25.1379052,28.4049557 24.9866837,28.4337598 24.8714673,28.476966 C24.6194315,28.5633783 24.6338335,28.5561772 24.6338335,28.498569 C24.6338335,28.3977547 24.9218745,28.0161004 25.1811113,27.7712656 L25.4475492,27.5120288 L25.4619512,27.5264308 Z M12.1256552,27.5552349 C12.1472583,27.5624359 12.1184542,27.5984411 12.060846,27.6344462 C11.6791917,27.8648789 11.2831354,28.1385178 11.2183262,28.2033271 C11.17512,28.2465332 11.0959088,28.3761516 11.0455016,28.498569 C10.9878934,28.6137854 10.9158832,28.7506049 10.8798781,28.8082131 C10.8366719,28.8586202 10.7862648,28.9810376 10.7646617,29.081852 C10.7358576,29.1754653 10.6998525,29.2762796 10.6854504,29.3050837 C10.6638473,29.3266868 10.6350433,29.3482898 10.6206412,29.3482898 C10.570234,29.3482898 10.555832,29.2906817 10.5342289,28.8946253 L10.5126258,28.5345742 L10.7574607,28.3473475 C10.8942801,28.2393322 11.0455016,28.1385178 11.0959088,28.1097138 C11.1463159,28.0809097 11.2903364,27.9800953 11.4199548,27.886482 C11.6791917,27.6992554 12.0392429,27.5192298 12.1112531,27.5408329 L12.1256552,27.5552349 Z M49.5637779,28.174523 C49.8230147,28.181724 50.0750506,28.196126 50.0894526,28.2105281 C50.1182567,28.2393322 50.0534475,28.3041414 49.9886383,28.3041414 C49.9526332,28.3041414 49.909427,28.3185434 49.895025,28.3401465 C49.8590199,28.4049557 49.614185,28.5057701 49.3621492,28.5705793 C49.2253298,28.6065844 48.9516909,28.7001977 48.7572632,28.78661 C48.5556346,28.8730223 48.397212,28.9378315 48.397212,28.9306305 C48.397212,28.9162284 48.5052274,28.7722079 48.6348458,28.5993834 C48.7644642,28.4265588 48.8724796,28.2681363 48.8724796,28.2393322 C48.8724796,28.2177291 48.9156857,28.181724 48.9732939,28.174523 C49.0237011,28.1601209 49.29734,28.1601209 49.5637779,28.1673219 L49.5637779,28.174523 Z M25.5267605,29.5571195 C25.5627656,29.5787226 25.5627656,29.8667636 25.5267605,29.9603769 C25.5195594,29.989181 25.4619512,30.0323871 25.397142,30.0683922 C25.3323328,30.0971963 25.2603226,30.1476035 25.2387195,30.1764076 C25.2099154,30.1980107 25.080297,30.2556188 24.9434775,30.298825 C24.5402202,30.4140414 24.2449782,30.3708352 24.5618233,30.2412168 C24.7346478,30.1620055 24.8642663,30.0755933 25.1955134,29.7803513 C25.3467349,29.6507328 25.4907553,29.5499185 25.5123584,29.5571195 L25.5267605,29.5571195 Z M53.4163256,30.6228711 C53.3731195,30.61567 53.2867072,30.6372731 53.2363,30.6588762 C53.1138826,30.7020823 52.0913372,30.9973243 51.9329147,31.0333294 C51.8248994,31.0549325 51.8104973,31.0837366 51.7384871,31.2925663 C51.6880799,31.4293857 51.5368584,31.7102257 51.3496318,31.9910656 C51.1768072,32.2431014 51.0543898,32.4735342 51.0615908,32.4951372 C51.111998,32.5815495 51.2992246,32.4591321 51.7888942,32.0198697 C51.8969096,31.9262564 52.1057393,31.7750349 52.2497598,31.6814216 C52.4945946,31.522999 52.5305997,31.4869939 52.6530171,31.2421591 C52.8114396,30.9397161 52.933857,30.7956956 53.0490734,30.7884946 C53.1570888,30.7884946 53.5099389,30.608469 53.4091246,30.608469 L53.4163256,30.6228711 Z M25.4763533,30.8100977 C25.5123584,30.7956956 25.5195594,30.8605048 25.5195594,31.0837366 L25.5195594,31.3717775 L25.3107297,31.4869939 C25.1955134,31.5518031 25.0658949,31.6310144 25.0298898,31.6670195 C24.9866837,31.7030246 24.8354622,31.7678338 24.6842407,31.803839 C24.5330192,31.8470451 24.3097874,31.8758492 24.1945711,31.8758492 L23.9857414,31.8758492 L24.0721537,31.7966379 C24.1225608,31.7534318 24.2017721,31.6958236 24.2521792,31.6742205 C24.3025864,31.6526175 24.5834263,31.4509888 24.8786683,31.2277571 C25.1739103,31.0045253 25.4403482,30.8100977 25.4691523,30.8028967 L25.4763533,30.8100977 Z M47.2234452,31.3789786 C47.4106718,31.3789786 47.5834963,31.3861796 47.6339035,31.4005816 C47.7059137,31.4149837 47.6915117,31.4365867 47.4970841,31.5590042 C47.3602646,31.6526175 47.2378472,31.7030246 47.165837,31.7030246 C47.0938267,31.7030246 47.0002134,31.7462308 46.9210022,31.7966379 C46.6833684,31.9766635 46.3233172,32.1710912 46.1216885,32.2286994 C45.9200598,32.2863076 45.9128588,32.2935086 45.8912557,32.430328 L45.8696527,32.5743485 L45.675225,32.5743485 C45.5672097,32.5743485 45.4735964,32.5599465 45.4591943,32.5455444 C45.4303902,32.5095393 45.6104158,32.3799209 46.0064721,32.1422871 C46.3017141,31.9622615 46.4745387,31.7822359 46.575353,31.5446021 C46.6113581,31.4581898 46.6545643,31.4293857 46.7625796,31.4077827 C46.8489919,31.3933806 47.0362185,31.3861796 47.2234452,31.3861796 L47.2234452,31.3789786 Z M51.8248994,34.4250116 C51.7744922,34.4178106 51.6736779,34.4466147 51.5944666,34.4898208 C51.421642,34.5762331 51.414441,34.5762331 51.414441,34.5114239 C51.414441,34.4682178 51.3352297,34.4538157 51.0327867,34.4466147 C50.823957,34.4394137 50.6367304,34.4394137 50.6151274,34.4466147 C50.5791222,34.4610167 50.2334731,34.9506864 50.0822516,35.2171242 C50.0030403,35.3467427 49.7726076,35.5555724 49.5421748,35.75 L49.8230147,35.75 C50.0030403,35.6419846 50.219071,35.5195672 50.2694782,35.4691601 C50.4134987,35.3323406 50.9247714,34.9722894 51.0399878,34.9362843 C51.0687919,34.9290833 51.2848226,34.8138669 51.5080543,34.6770475 C51.8393014,34.4826198 51.8969096,34.4394137 51.8248994,34.4322126 L51.8248994,34.4250116 Z" fill="#FFFFFF" mask="url(#mask-2)"></path>
            </g>
            <use id="Polygon" stroke="#FFFFFF" mask="url(#mask-4)" stroke-width="2" xlink:href="#path-3"></use>
        </g>
    </g>
</svg>
